<?xml version="1.0" encoding="UTF-8"?>
<!DOCTYPE svg PUBLIC "-//W3C//DTD SVG 1.0//EN" "http://www.w3.org/TR/2001/REC-SVG-20010904/DTD/svg10.dtd">
<!-- Creator: CorelDRAW 2021 (64 Bit) -->
<svg xmlns="http://www.w3.org/2000/svg" xml:space="preserve" width="31.3266mm" height="7.68mm" version="1.0" style="shape-rendering:geometricPrecision; text-rendering:geometricPrecision; image-rendering:optimizeQuality; fill-rule:evenodd; clip-rule:evenodd"
viewBox="0 0 3132.62 767.99"
 xmlns:xlink="http://www.w3.org/1999/xlink"
 xmlns:xodm="http://www.corel.com/coreldraw/odm/2003">
 <defs>
  <style type="text/css">
   <![CDATA[
    .fil0 {fill:#495F3F;fill-rule:nonzero}
   ]]>
  </style>
 </defs>
 <g id="Camada_x0020_1">
  <metadata id="CorelCorpID_0Corel-Layer"/>
  <path class="fil0" d="M1672.05 601.75c-5.65,28.77 -13.83,53.47 -24.27,74.24 -10.44,20.87 -23.7,38.1 -39.92,51.65 -16.08,13.69 -35.28,23.84 -57.44,30.49 -22.16,6.61 -47.82,9.86 -77.06,9.86 -5.5,0 -12.12,-0.14 -19.77,-0.43 -7.76,-0.29 -14.4,-0.71 -19.91,-1.29l11.58 -61.8c12.69,1.68 24.55,2.54 35.56,2.54 32.74,0 58.97,-8.47 78.45,-25.27 19.62,-16.94 33.03,-43.61 40.21,-79.88l60.4 -302.13 -133.07 0 12.01 -60.12 133.07 0 13.83 -68.73c10.87,-54.76 32.31,-96.07 64.34,-124.02 32.02,-27.81 76.92,-41.78 134.6,-41.78 14.69,0 30.77,0.86 48.25,2.54 17.51,1.54 34.85,4.07 51.93,7.33l-12.83 61.23c-15.8,-3.54 -31.6,-6.22 -47.39,-8.18 -15.94,-1.82 -31.74,-2.82 -47.43,-2.82 -32.88,0 -59.12,8.76 -78.74,26.38 -19.62,17.66 -32.88,44.18 -39.92,79.31l-13.83 68.73 182.61 0 -12.01 60.12 -182.61 0 -60.69 301.98 0.05 0.05zm-338.19 -7.37l78.74 -414.02 -121.92 0 -78.74 414.02 121.92 0zm33.03 -465.67c38.92,0 71.95,-25.41 71.95,-68.59 0,-36.42 -25.41,-60.12 -60.98,-60.12 -37.24,0 -69.41,27.95 -70.27,69.41 0,36.42 25.41,59.26 59.26,59.26l0.04 0.04zm-220.99 359.85c-21.16,8.47 -46.57,16.94 -82.13,16.94 -45.71,0 -81.28,-28.77 -81.28,-85.49 0,-77.92 53.33,-151.55 140.54,-151.55 24.55,0 41.5,4.25 55.86,10.15l29.63 -93.14c-17.76,-7.61 -48.25,-14.4 -83.81,-14.4 -157.48,0 -270.1,115.16 -270.1,262.45 0,107.55 71.98,169.34 174.42,169.34 49.11,0 91.43,-8.47 117.66,-21.16l-0.86 -93.14 0.07 0zm-354.52 -5.93c-33.03,16.08 -71.13,26.23 -115.98,26.23 -35.56,0 -63.51,-11.01 -79.6,-32.17 -8.47,-11.87 -12.69,-30.49 -12.69,-42.32 165.95,4.22 268.39,-33.88 268.39,-139.71 0,-77.06 -60.12,-123.63 -143.93,-123.63 -149.87,0 -241.29,131.24 -241.29,257.38 0,107.55 60.98,174.42 179.5,174.42 45.71,0 105.83,-7.61 154.08,-32.17l-8.47 -88.03 -0.01 0zm-54.19 -187.11c0,37.24 -47.39,50.79 -142.25,49.97 8.47,-38.96 40.64,-85.49 97.36,-85.49 27.95,0 44.86,14.4 44.86,35.56l0.03 -0.04zm-737.16 298.87l121.06 0 42.32 -225.21 37.24 0c48.25,0 71.95,21.16 77.02,90.61 5.93,70.27 11.87,119.38 16.94,134.6l125.31 0c-10.15,-23.7 -15.26,-98.22 -22.02,-161.7 -5.93,-51.65 -20.34,-89.75 -54.18,-104.15l0 -3.4c72.81,-23.7 129.56,-76.2 129.56,-160.87 0,-53.33 -26.23,-89.75 -63.51,-111.76 -39.82,-24.55 -95.68,-33.03 -149.87,-33.03 -56.72,0 -114.3,5.93 -152.4,15.23l-107.51 559.64 0.04 0.03zm211.66 -474.14c10.15,-2.54 24.55,-4.22 47.43,-4.22 48.25,0 87.21,20.34 87.21,66.05 0,55.86 -48.25,95.68 -114.3,95.68l-50.79 0 30.49 -157.48 -0.04 -0.03zm2845.01 474.14l-92.57 0 -79.74 -158.77 -142.65 158.77 -96.82 0 202.51 -208.27 -111.91 -206.59 88.89 0 76.77 159.87 139.29 -159.87 92.14 0 -196.87 208.27 120.95 206.59 0.01 0zm-710.86 -184.57c-1.29,7.18 -2.39,13.98 -3.11,20.34 -0.71,6.36 -0.97,12.55 -0.97,18.62 0,30.06 9.04,53.08 26.95,69.16 17.91,15.94 45.71,23.98 83.24,23.98 24.27,0 48.25,-1.82 72.23,-5.36 23.84,-3.65 45.18,-7.76 63.94,-12.4l0 59.26c-20.59,5.5 -43.89,10.01 -69.7,13.4 -25.66,3.54 -51.79,5.22 -78.31,5.22 -58.4,0 -101.61,-12.97 -129.39,-39.1 -27.81,-26.09 -41.78,-63.76 -41.78,-113.16 0,-37.96 5.93,-73.81 17.76,-107.55 11.87,-33.6 28.24,-62.94 49.11,-88.18 21.02,-25.27 45.86,-45.28 74.66,-59.97 28.77,-14.83 60.12,-22.16 94.11,-22.16 23.27,0 44.18,2.82 62.51,8.33 18.34,5.5 33.88,12.97 46.57,22.73 12.55,9.58 22.3,20.87 28.92,33.99 6.61,13.12 9.86,27.24 9.86,42.35 0,19.87 -4.25,37.67 -12.55,53.76 -8.47,15.94 -21.87,29.63 -40.21,41.07 -18.34,11.44 -41.93,20.19 -70.98,26.38 -28.92,6.22 -63.91,9.33 -104.97,9.33l-77.88 0 -0.01 -0.04zm77.06 -55.04c30.63,0 55.86,-1.82 75.92,-5.65 19.91,-3.68 35.85,-8.76 47.57,-15.08 11.72,-6.22 19.91,-13.55 24.55,-21.87 4.65,-8.33 7.08,-16.8 7.08,-25.7 0,-7.61 -1.54,-14.94 -4.5,-21.87 -3.11,-6.9 -7.76,-12.97 -14.26,-18.19 -6.51,-5.22 -14.69,-9.29 -24.41,-12.4 -9.86,-2.97 -21.3,-4.5 -34.56,-4.5 -17.94,0 -34.28,2.97 -49.11,8.9 -14.69,5.93 -27.95,14.4 -39.78,25.23 -12.01,10.87 -22.45,23.98 -31.45,39.53 -9.19,15.37 -16.8,32.6 -23.16,51.65l66.19 0 -0.08 -0.05zm-166.41 211.66c-26.52,10.72 -52.93,19.05 -79.17,24.98 -26.38,5.93 -53.33,8.9 -80.99,8.9 -25.81,0 -47.14,-3.11 -63.66,-9.47 -16.66,-6.36 -29.06,-16.8 -37.24,-31.31 -8.33,-14.4 -12.55,-33.45 -12.83,-56.87 -0.29,-23.45 2.82,-52.08 9.47,-85.92l82.42 -406.52 73.66 0 -81.13 406.52c-5.08,24.55 -8.18,44.61 -9.29,60.26 -1.29,15.65 -0.43,28.09 2.68,37.1 2.97,9.19 8.18,15.51 15.51,19.05 7.18,3.54 16.94,5.36 29.06,5.36 20.44,0 43.18,-2.97 68.16,-8.76 24.98,-5.79 52.79,-14.98 83.39,-27.66l0 64.34 -0.04 0z"/>
 </g>
</svg>
