<?xml version="1.0" encoding="UTF-8"?>
<!DOCTYPE svg PUBLIC "-//W3C//DTD SVG 1.1//EN" "http://www.w3.org/Graphics/SVG/1.1/DTD/svg11.dtd">
<!-- Creator: CorelDRAW 2020 (64 Bit) -->
<svg xmlns="http://www.w3.org/2000/svg" xml:space="preserve" width="57.4698mm" height="24.338mm" version="1.1" style="shape-rendering:geometricPrecision; text-rendering:geometricPrecision; image-rendering:optimizeQuality; fill-rule:evenodd; clip-rule:evenodd"
viewBox="0 0 8374.99 3546.74"
 xmlns:xlink="http://www.w3.org/1999/xlink"
 xmlns:xodm="http://www.corel.com/coreldraw/odm/2003">
 <defs>
  <style type="text/css">
   <![CDATA[
    .str0 {stroke:#FEFEFE;stroke-width:11.1;stroke-miterlimit:22.9256}
    .fil2 {fill:#FEFEFE}
    .fil1 {fill:#FEFEFE;fill-rule:nonzero}
    .fil0 {fill:#FEFEFE;fill-rule:nonzero}
   ]]>
  </style>
 </defs>
 <g id="Camada_x0020_1">
  <metadata id="CorelCorpID_0Corel-Layer"/>
  <g id="_1961209593936">
   <path class="fil0" d="M772.35 955.76c8.5,2.35 16.74,6.56 24.91,12.63 8.06,6.08 15.14,13.63 21.09,22.65 6.02,9.02 10.9,19.02 14.53,30.01 3.72,10.97 5.6,22.34 5.6,34.12 0,23.13 -3.73,43.33 -11.18,60.58 -7.45,17.24 -17.63,31.46 -30.75,42.64 -13.13,11.18 -28.37,19.5 -45.64,24.99 -17.39,5.49 -35.91,8.23 -55.76,8.23 -19.85,0 -38.28,-2.74 -55.48,-8.23 -17.11,-5.49 -32.26,-13.82 -45.38,-24.99 -13.12,-11.18 -23.3,-25.4 -30.75,-42.64 -7.45,-17.25 -11.18,-37.45 -11.18,-60.58 0,-11.77 1.95,-23.14 5.86,-34.12 3.8,-10.99 8.86,-20.88 14.98,-29.71 6.19,-8.82 13.2,-16.37 21.17,-22.63 7.88,-6.28 15.87,-10.59 24.02,-12.94 -5.67,-2.75 -11.43,-6.97 -17.46,-12.65 -5.93,-5.68 -11.43,-12.55 -16.58,-20.59 -5.04,-8.03 -9.21,-16.76 -12.39,-26.17 -3.12,-9.4 -4.71,-19.02 -4.71,-28.81 0,-17.65 3.37,-33.82 10.1,-48.53 6.73,-14.7 15.78,-27.44 27.31,-38.22 11.51,-10.78 25.07,-19.22 40.59,-25.3 15.59,-6.08 32.16,-9.11 49.9,-9.11 17.72,0 34.3,3.03 49.9,9.11 15.52,6.08 29.16,14.51 40.86,25.3 11.7,10.78 20.84,23.52 27.57,38.22 6.73,14.7 10.1,30.88 10.1,48.53 0,10.19 -1.33,20.1 -3.99,29.7 -2.56,9.6 -6.21,18.33 -10.81,26.17 -4.52,7.84 -9.92,14.6 -16.13,20.29 -6.11,5.68 -12.84,9.71 -20.29,12.07zm-130.65 -79.7c0,8.73 1.41,16.18 4.24,22.44 2.86,6.38 6.75,11.67 11.7,15.99 4.97,4.31 10.73,7.64 17.28,9.79 6.57,2.16 13.39,3.24 20.47,3.24 14.89,0 27.57,-4.31 38.04,-13.03 10.45,-8.63 15.68,-21.47 15.68,-38.43 0,-10.59 -1.41,-19.51 -4.26,-26.57 -2.84,-7.16 -6.73,-12.94 -11.7,-17.44 -4.95,-4.62 -10.64,-7.85 -17.01,-9.81 -6.38,-1.97 -13.31,-2.94 -20.75,-2.94 -7.08,0 -13.9,1.08 -20.47,3.24 -6.56,2.16 -12.31,5.49 -17.28,10.1 -4.95,4.5 -8.85,10.29 -11.7,17.44 -2.83,7.07 -4.24,15.78 -4.24,25.98zm53.44 242.61c9.21,0 18.08,-0.98 26.41,-2.93 8.42,-1.97 15.69,-5.3 21.9,-10.1 6.21,-4.71 11.25,-11.08 14.98,-19.22 3.72,-8.03 5.57,-18.33 5.57,-30.97 0,-9.81 -1.85,-18.73 -5.57,-26.57 -3.73,-7.94 -8.77,-14.7 -14.98,-20.39 -6.21,-5.7 -13.48,-10.1 -21.9,-13.04 -8.32,-2.94 -17.2,-4.42 -26.41,-4.42 -9.22,0 -18,1.37 -26.14,4.12 -8.23,2.74 -15.42,6.86 -21.63,12.45 -6.21,5.49 -11.25,12.26 -14.98,20.39 -3.72,8.04 -5.58,17.25 -5.58,27.46 0,12.63 1.87,22.94 5.58,30.97 3.73,8.15 8.77,14.51 14.98,19.22 6.21,4.79 13.39,8.13 21.63,10.1 8.15,1.95 16.92,2.93 26.14,2.93zm333.16 -222.91c42.2,0 75.17,13.23 98.92,39.7 23.74,26.46 35.63,63.42 35.63,110.87 0,21.17 -3.64,40.88 -10.99,59.11 -7.27,18.23 -18.1,34.22 -32.37,47.94 -12.94,12.55 -27.73,22.05 -44.67,28.52 -16.83,6.47 -34.65,9.71 -53.44,9.71 -18.78,0 -35.18,-2.05 -49.18,-6.18 -14,-4.11 -26.51,-9.6 -37.51,-16.47 -10.99,-6.86 -20.74,-14.5 -29.23,-22.94 -8.51,-8.42 -16.5,-16.96 -23.94,-25.59l38.3 -58.82c0,0 2.3,2.94 6.91,8.83 4.62,5.87 11.35,12.26 20.21,19.12 8.86,6.85 19.5,13.13 31.9,18.81 12.42,5.68 26.6,8.73 42.55,9.12 8.15,0 16.22,-1.68 24.19,-5 7.99,-3.34 15.16,-8.04 21.54,-14.12 6.38,-6.08 11.51,-13.52 15.42,-22.35 3.91,-8.82 5.84,-18.71 5.84,-29.7 0,-24.7 -5.49,-44.8 -16.48,-60.29 -10.99,-15.49 -25.71,-23.62 -44.14,-24.41 -10.99,-0.39 -20.74,0.39 -29.23,2.36 -8.51,1.95 -16.04,4.79 -22.6,8.53 -6.57,3.73 -12.14,7.84 -16.76,12.36 -4.61,4.5 -8.67,8.71 -12.23,12.63l-56.37 -33.52 35.63 -211.74 212.01 0 0 72.94 -151.92 0 -13.29 91.17c8.16,-7.07 17.09,-12.26 26.86,-15.59 9.75,-3.34 19.24,-5 28.45,-5zm572.2 71.17c7.08,2.74 14.35,6.46 21.8,11.16 7.45,4.71 14.27,10.89 20.47,18.54 6.21,7.64 11.25,17.25 15.16,28.81 3.89,11.57 5.84,25.4 5.84,41.47 0,3.92 -0.26,8.71 -0.8,14.41 -0.52,5.68 -1.59,11.85 -3.19,18.52 -1.59,6.66 -3.89,13.52 -6.89,20.58 -3.03,7.07 -7.01,14.12 -11.96,21.17 -7.46,10.2 -15.88,18.54 -25.28,25.01 -9.38,6.47 -19.13,11.56 -29.23,15.29 -10.1,3.73 -20.11,6.28 -30.05,7.65 -9.92,1.37 -19.32,2.05 -28.18,2.05 -22.69,0 -42.01,-4.21 -57.96,-12.74 -15.96,-8.54 -29.16,-19.02 -39.62,-31.48 -10.46,-12.45 -18.7,-25.49 -24.73,-39.3 -6.03,-13.73 -10.29,-25.68 -12.77,-35.88l71.26 -22.94c0.35,1.57 1.24,6.08 2.67,13.52 1.4,7.45 4.33,15.3 8.77,23.54 4.43,8.23 10.73,15.68 18.89,22.34 8.13,6.67 19.31,10 33.49,10 20.56,0 35.89,-5.19 45.99,-15.48 10.11,-10.39 15.17,-22.56 15.17,-36.56 0,-14.91 -2.14,-26.77 -6.4,-35.79 -4.26,-8.92 -10.45,-15.97 -18.59,-21.07 -8.16,-5 -18.36,-8.42 -30.59,-10.19 -12.23,-1.78 -26.32,-3.05 -42.28,-3.83l0 -63.52c15.24,-0.79 28.99,-1.87 41.21,-3.24 12.24,-1.37 22.52,-4.21 30.85,-8.53 8.32,-4.31 14.7,-10.58 19.13,-18.81 4.43,-8.23 6.66,-19.41 6.66,-33.53 0,-14.12 -5.06,-26.27 -15.17,-36.46 -10.1,-10.2 -25.43,-15.3 -45.99,-15.3 -14.18,0 -25.36,3.34 -33.49,10 -8.16,6.67 -14.46,14.12 -18.89,22.35 -4.44,8.23 -7.37,15.99 -8.77,23.23 -1.43,7.26 -2.32,11.67 -2.67,13.23l-71.26 -22.94c2.48,-10.19 6.73,-22.15 12.77,-35.88 6.03,-13.71 14.27,-26.76 24.73,-39.1 10.46,-12.36 23.67,-22.75 39.62,-31.19 15.94,-8.42 35.27,-12.63 57.96,-12.63 24.82,0 45.92,3.82 63.28,11.47 17.37,7.64 31.38,17.44 42.01,29.41 10.64,11.95 18.35,25.28 23.14,39.99 4.78,14.7 7.17,29.31 7.17,43.82 0,16.07 -1.85,29.51 -5.58,40.29 -3.72,10.78 -8.69,19.99 -14.89,27.64 -6.21,7.64 -13.03,13.82 -20.47,18.52 -7.45,4.71 -14.88,8.82 -22.33,12.36zm287.7 225.25c-25.88,0 -49.81,-5.87 -71.8,-17.63 -21.98,-11.77 -40.94,-28.64 -56.89,-50.58 -14.89,-20.4 -26.16,-43.82 -33.77,-70.28 -7.64,-26.48 -11.44,-54.81 -11.44,-84.99 0,-32.95 4.26,-63.04 12.77,-90.29 8.51,-27.25 20.39,-50.67 35.63,-70.28 15.24,-19.6 33.58,-34.89 55.03,-45.88 21.45,-10.97 44.94,-16.47 70.47,-16.47 25.17,0 48.4,5.6 69.66,16.76 21.26,11.18 39.62,26.67 55.03,46.47 15.43,19.8 27.48,43.33 36.17,70.58 8.69,27.25 13.03,56.95 13.03,89.11 0,29.8 -3.98,58.03 -11.95,84.68 -7.99,26.67 -19.43,50.19 -34.32,70.59 -15.94,22.34 -34.92,39.3 -56.89,50.87 -21.98,11.57 -45.55,17.34 -70.72,17.34zm0 -369.36c-11.35,0 -22.88,2.84 -34.57,8.54 -11.7,5.68 -22.25,14.4 -31.65,26.17 -9.38,11.76 -17.09,26.86 -23.13,45.28 -6.03,18.43 -9.05,40.4 -9.05,65.88 0,17.24 1.95,34.6 5.86,52.04 3.89,17.46 9.84,33.14 17.81,47.06 7.99,13.92 18.17,25.3 30.59,34.12 12.4,8.83 27.11,13.23 44.14,13.23 11.69,0 23.39,-3.13 35.09,-9.41 11.7,-6.27 22.24,-15.58 31.64,-27.94 9.4,-12.34 16.93,-27.64 22.6,-45.88 5.67,-18.23 8.51,-39.3 8.51,-63.22 0,-19.62 -2.39,-39.42 -7.18,-59.41 -4.78,-19.99 -11.61,-36.27 -20.47,-48.82 -17.72,-25.09 -41.12,-37.64 -70.18,-37.64zm536.03 192.33l0 72.94 -47.33 0 0 95.28 -74.45 0 0 -95.28 -186.65 0 0 -70.59 204.73 -265.26 56.37 0 0 262.91 47.33 0zm-121.79 -124.1l-91.46 124.1 91.46 0 0 -124.1zm420.65 -138.81l0 81.17 -177.61 349.95 -85.08 0 186.12 -358.19 -201.56 0 0 -72.94 278.12 0zm38.28 392.3c0,12.15 -3.8,22.46 -11.44,30.88 -7.61,8.44 -16.93,12.65 -27.92,12.65 -10.62,0 -19.76,-4.21 -27.37,-12.65 -7.64,-8.42 -11.44,-18.73 -11.44,-30.88 0,-11.76 3.8,-21.86 11.44,-30.28 7.61,-8.44 16.74,-12.65 27.37,-12.65 10.99,0 20.31,4.21 27.92,12.65 7.64,8.42 11.44,18.52 11.44,30.28zm204.73 -392.3l0 431.12 -74.45 0 0 -289.37 -56.91 60 -51.03 -60 135.06 -141.75 47.33 0zm271.2 214.69c7.1,2.74 14.37,6.46 21.82,11.16 7.45,4.71 14.27,10.89 20.47,18.54 6.21,7.64 11.25,17.25 15.16,28.81 3.89,11.57 5.84,25.4 5.84,41.47 0,3.92 -0.26,8.71 -0.8,14.41 -0.52,5.68 -1.59,11.85 -3.19,18.52 -1.59,6.66 -3.91,13.52 -6.91,20.58 -3.02,7.07 -7.01,14.12 -11.96,21.17 -7.45,10.2 -15.87,18.54 -25.27,25.01 -9.38,6.47 -19.13,11.56 -29.23,15.29 -10.11,3.73 -20.13,6.28 -30.05,7.65 -9.92,1.37 -19.32,2.05 -28.18,2.05 -22.69,0 -42.01,-4.21 -57.97,-12.74 -15.96,-8.54 -29.16,-19.02 -39.61,-31.48 -10.46,-12.45 -18.7,-25.49 -24.74,-39.3 -6.02,-13.73 -10.27,-25.68 -12.75,-35.88l71.26 -22.94c0.35,1.57 1.24,6.08 2.67,13.52 1.4,7.45 4.33,15.3 8.77,23.54 4.42,8.23 10.73,15.68 18.87,22.34 8.15,6.67 19.32,10 33.5,10 20.56,0 35.89,-5.19 45.99,-15.48 10.1,-10.39 15.17,-22.56 15.17,-36.56 0,-14.91 -2.14,-26.77 -6.4,-35.79 -4.26,-8.92 -10.45,-15.97 -18.61,-21.07 -8.15,-5 -18.35,-8.42 -30.57,-10.19 -12.23,-1.78 -26.32,-3.05 -42.28,-3.83l0 -63.52c15.24,-0.79 28.99,-1.87 41.21,-3.24 12.24,-1.37 22.52,-4.21 30.84,-8.53 8.34,-4.31 14.72,-10.58 19.15,-18.81 4.43,-8.23 6.66,-19.41 6.66,-33.53 0,-14.12 -5.07,-26.27 -15.17,-36.46 -10.1,-10.2 -25.43,-15.3 -45.99,-15.3 -14.18,0 -25.36,3.34 -33.5,10 -8.15,6.67 -14.46,14.12 -18.87,22.35 -4.44,8.23 -7.37,15.99 -8.77,23.23 -1.43,7.26 -2.32,11.67 -2.67,13.23l-71.26 -22.94c2.48,-10.19 6.73,-22.15 12.75,-35.88 6.05,-13.71 14.28,-26.76 24.74,-39.1 10.45,-12.36 23.65,-22.75 39.61,-31.19 15.96,-8.42 35.28,-12.63 57.97,-12.63 24.82,0 45.92,3.82 63.28,11.47 17.37,7.64 31.38,17.44 42.01,29.41 10.64,11.95 18.35,25.28 23.13,39.99 4.79,14.7 7.18,29.31 7.18,43.82 0,16.07 -1.85,29.51 -5.58,40.29 -3.72,10.78 -8.69,19.99 -14.89,27.64 -6.21,7.64 -13.03,13.82 -20.47,18.52 -7.45,4.71 -14.89,8.82 -22.34,12.36zm287.7 225.25c-25.87,0 -49.8,-5.87 -71.79,-17.63 -21.98,-11.77 -40.94,-28.64 -56.89,-50.58 -14.89,-20.4 -26.16,-43.82 -33.78,-70.28 -7.62,-26.48 -11.43,-54.81 -11.43,-84.99 0,-32.95 4.26,-63.04 12.77,-90.29 8.51,-27.25 20.37,-50.67 35.62,-70.28 15.26,-19.6 33.59,-34.89 55.04,-45.88 21.45,-10.97 44.94,-16.47 70.46,-16.47 25.17,0 48.4,5.6 69.67,16.76 21.26,11.18 39.61,26.67 55.03,46.47 15.43,19.8 27.48,43.33 36.17,70.58 8.69,27.25 13.03,56.95 13.03,89.11 0,29.8 -3.99,58.03 -11.96,84.68 -7.99,26.67 -19.41,50.19 -34.3,70.59 -15.94,22.34 -34.92,39.3 -56.89,50.87 -21.98,11.57 -45.57,17.34 -70.74,17.34zm0 -369.36c-11.34,0 -22.86,2.84 -34.55,8.54 -11.7,5.68 -22.25,14.4 -31.65,26.17 -9.4,11.76 -17.09,26.86 -23.14,45.28 -6.02,18.43 -9.04,40.4 -9.04,65.88 0,17.24 1.95,34.6 5.86,52.04 3.89,17.46 9.84,33.14 17.81,47.06 7.99,13.92 18.17,25.3 30.59,34.12 12.4,8.83 27.11,13.23 44.13,13.23 11.7,0 23.4,-3.13 35.11,-9.41 11.7,-6.27 22.24,-15.58 31.64,-27.94 9.4,-12.34 16.93,-27.64 22.59,-45.88 5.68,-18.23 8.53,-39.3 8.53,-63.22 0,-19.62 -2.39,-39.42 -7.18,-59.41 -4.78,-19.99 -11.61,-36.27 -20.47,-48.82 -17.72,-25.09 -41.12,-37.64 -70.2,-37.64zm365.88 72.94c42.19,0 75.15,13.23 98.91,39.7 23.74,26.46 35.63,63.42 35.63,110.87 0,21.17 -3.64,40.88 -10.99,59.11 -7.27,18.23 -18.1,34.22 -32.37,47.94 -12.94,12.55 -27.73,22.05 -44.67,28.52 -16.83,6.47 -34.65,9.71 -53.44,9.71 -18.78,0 -35.18,-2.05 -49.18,-6.18 -14,-4.11 -26.51,-9.6 -37.5,-16.47 -10.99,-6.86 -20.75,-14.5 -29.25,-22.94 -8.51,-8.42 -16.5,-16.96 -23.94,-25.59l38.3 -58.82c0,0 2.3,2.94 6.92,8.83 4.61,5.87 11.34,12.26 20.21,19.12 8.85,6.85 19.48,13.13 31.89,18.81 12.42,5.68 26.6,8.73 42.55,9.12 8.16,0 16.22,-1.68 24.19,-5 7.99,-3.34 15.17,-8.04 21.54,-14.12 6.38,-6.08 11.51,-13.52 15.42,-22.35 3.91,-8.82 5.86,-18.71 5.86,-29.7 0,-24.7 -5.51,-44.8 -16.5,-60.29 -10.99,-15.49 -25.71,-23.62 -44.13,-24.41 -10.99,-0.39 -20.75,0.39 -29.25,2.36 -8.51,1.95 -16.04,4.79 -22.6,8.53 -6.56,3.73 -12.14,7.84 -16.74,12.36 -4.62,4.5 -8.69,8.71 -12.23,12.63l-56.38 -33.52 35.63 -211.74 212.01 0 0 72.94 -151.92 0 -13.29 91.17c8.16,-7.07 17.11,-12.26 26.86,-15.59 9.75,-3.34 19.24,-5 28.46,-5zm329.7 368.78l236.63 -571.69 69.13 0 -236.63 571.69 -69.13 0zm648.77 -219.39c-20.21,1.18 -38.55,-2.24 -55.04,-10.29 -16.48,-8.03 -30.66,-19.12 -42.54,-33.23 -11.88,-14.12 -21,-30.4 -27.4,-48.82 -6.37,-18.43 -9.56,-37.64 -9.56,-57.64 0,-13.73 1.06,-26.09 3.19,-37.06 2.11,-10.97 4.97,-20.78 8.51,-29.41 3.54,-8.63 7.34,-16.18 11.44,-22.65 4.07,-6.47 8.23,-12.05 12.49,-16.76 8.86,-9.81 18.33,-17.65 28.45,-23.54 10.1,-5.87 20.21,-10.48 30.31,-13.82 10.11,-3.34 19.67,-5.49 28.71,-6.47 9.04,-0.98 16.93,-1.47 23.67,-1.47 15.96,0 31.2,2.45 45.73,7.36 14.54,4.9 27.75,11.76 39.62,20.58 11.88,8.83 22.17,19.41 30.85,31.77 8.69,12.34 15.14,25.97 19.41,40.88 7.08,24.7 10.1,48.32 9.04,70.87 -1.06,22.54 -6.38,46.17 -15.96,70.87 -3.19,7.46 -9.12,18.83 -17.82,34.12 -8.67,15.3 -18.78,32.25 -30.3,50.87 -11.53,18.62 -23.67,37.85 -36.43,57.65 -12.77,19.79 -24.64,37.93 -35.63,54.4l-92 0c7.1,-10.58 14.7,-22.05 22.86,-34.41 8.16,-12.36 16.31,-24.91 24.47,-37.64 8.16,-12.75 16.31,-25.39 24.45,-37.93 8.16,-12.55 15.78,-24.32 22.88,-35.3 -2.49,1.18 -5.68,2.55 -9.59,4.12 -3.89,1.56 -8.5,2.54 -13.82,2.93zm10.11 -228.2c-9.94,0 -19.25,1.56 -27.92,4.71 -8.69,3.13 -16.22,7.74 -22.6,14.02 -6.38,6.27 -11.44,14.4 -15.17,24.31 -3.72,10 -5.57,21.57 -5.57,34.89 0,10.59 1.85,20.49 5.57,29.9 3.73,9.31 8.79,17.55 15.17,24.6 6.38,7.07 13.92,12.55 22.6,16.67 8.67,4.12 17.98,6.18 27.92,6.18 9.91,0 19.22,-2.05 27.91,-6.18 8.69,-4.12 16.31,-9.6 22.86,-16.67 6.56,-7.05 11.7,-15.29 15.43,-24.6 3.72,-9.41 5.57,-19.31 5.57,-29.9 0,-13.71 -1.85,-25.39 -5.57,-35.18 -3.73,-9.71 -8.87,-17.85 -15.43,-24.32 -6.56,-6.47 -14.18,-11.08 -22.86,-14.02 -8.69,-2.93 -18,-4.4 -27.91,-4.4zm596.48 138.81c8.5,2.35 16.74,6.56 24.91,12.63 8.06,6.08 15.16,13.63 21.09,22.65 6.03,9.02 10.9,19.02 14.54,30.01 3.72,10.97 5.58,22.34 5.58,34.12 0,23.13 -3.73,43.33 -11.18,60.58 -7.45,17.24 -17.63,31.46 -30.75,42.64 -13.13,11.18 -28.37,19.5 -45.64,24.99 -17.39,5.49 -35.91,8.23 -55.74,8.23 -19.86,0 -38.3,-2.74 -55.49,-8.23 -17.09,-5.49 -32.26,-13.82 -45.38,-24.99 -13.12,-11.18 -23.3,-25.4 -30.75,-42.64 -7.45,-17.25 -11.18,-37.45 -11.18,-60.58 0,-11.77 1.95,-23.14 5.86,-34.12 3.8,-10.99 8.86,-20.88 14.98,-29.71 6.21,-8.82 13.2,-16.37 21.17,-22.63 7.88,-6.28 15.87,-10.59 24.02,-12.94 -5.67,-2.75 -11.43,-6.97 -17.46,-12.65 -5.93,-5.68 -11.43,-12.55 -16.57,-20.59 -5.06,-8.03 -9.21,-16.76 -12.4,-26.17 -3.12,-9.4 -4.71,-19.02 -4.71,-28.81 0,-17.65 3.38,-33.82 10.11,-48.53 6.73,-14.7 15.77,-27.44 27.29,-38.22 11.51,-10.78 25.08,-19.22 40.6,-25.3 15.58,-6.08 32.16,-9.11 49.9,-9.11 17.72,0 34.29,3.03 49.9,9.11 15.51,6.08 29.15,14.51 40.85,25.3 11.7,10.78 20.84,23.52 27.57,38.22 6.73,14.7 10.1,30.88 10.1,48.53 0,10.19 -1.33,20.1 -3.99,29.7 -2.56,9.6 -6.21,18.33 -10.81,26.17 -4.52,7.84 -9.92,14.6 -16.13,20.29 -6.11,5.68 -12.84,9.71 -20.29,12.07zm-130.65 -79.7c0,8.73 1.41,16.18 4.26,22.44 2.84,6.38 6.73,11.67 11.69,15.99 4.97,4.31 10.73,7.64 17.3,9.79 6.56,2.16 13.38,3.24 20.47,3.24 14.88,0 27.56,-4.31 38.02,-13.03 10.45,-8.63 15.68,-21.47 15.68,-38.43 0,-10.59 -1.41,-19.51 -4.26,-26.57 -2.83,-7.16 -6.73,-12.94 -11.7,-17.44 -4.95,-4.62 -10.64,-7.85 -17.01,-9.81 -6.38,-1.97 -13.29,-2.94 -20.74,-2.94 -7.1,0 -13.92,1.08 -20.47,3.24 -6.57,2.16 -12.33,5.49 -17.3,10.1 -4.95,4.5 -8.85,10.29 -11.69,17.44 -2.84,7.07 -4.26,15.78 -4.26,25.98zm53.45 242.61c9.21,0 18.07,-0.98 26.39,-2.93 8.42,-1.97 15.69,-5.3 21.9,-10.1 6.21,-4.71 11.25,-11.08 14.98,-19.22 3.72,-8.03 5.58,-18.33 5.58,-30.97 0,-9.81 -1.87,-18.73 -5.58,-26.57 -3.73,-7.94 -8.77,-14.7 -14.98,-20.39 -6.21,-5.7 -13.48,-10.1 -21.9,-13.04 -8.32,-2.94 -17.18,-4.42 -26.39,-4.42 -9.22,0 -18,1.37 -26.16,4.12 -8.23,2.74 -15.42,6.86 -21.63,12.45 -6.21,5.49 -11.25,12.26 -14.98,20.39 -3.72,8.04 -5.58,17.25 -5.58,27.46 0,12.63 1.87,22.94 5.58,30.97 3.73,8.15 8.77,14.51 14.98,19.22 6.21,4.79 13.39,8.13 21.63,10.1 8.16,1.95 16.93,2.93 26.16,2.93zm407.43 -162.91c8.51,2.35 16.76,6.56 24.91,12.63 8.07,6.08 15.16,13.63 21.1,22.65 6.02,9.02 10.89,19.02 14.53,30.01 3.72,10.97 5.58,22.34 5.58,34.12 0,23.13 -3.73,43.33 -11.16,60.58 -7.45,17.24 -17.63,31.46 -30.76,42.64 -13.12,11.18 -28.36,19.5 -45.64,24.99 -17.37,5.49 -35.89,8.23 -55.74,8.23 -19.86,0 -38.28,-2.74 -55.48,-8.23 -17.11,-5.49 -32.28,-13.82 -45.38,-24.99 -13.13,-11.18 -23.32,-25.4 -30.75,-42.64 -7.45,-17.25 -11.18,-37.45 -11.18,-60.58 0,-11.77 1.95,-23.14 5.84,-34.12 3.82,-10.99 8.87,-20.88 14.98,-29.71 6.21,-8.82 13.2,-16.37 21.17,-22.63 7.9,-6.28 15.88,-10.59 24.02,-12.94 -5.65,-2.75 -11.41,-6.97 -17.46,-12.65 -5.92,-5.68 -11.41,-12.55 -16.57,-20.59 -5.04,-8.03 -9.21,-16.76 -12.4,-26.17 -3.1,-9.4 -4.69,-19.02 -4.69,-28.81 0,-17.65 3.37,-33.82 10.1,-48.53 6.73,-14.7 15.77,-27.44 27.29,-38.22 11.53,-10.78 25.08,-19.22 40.6,-25.3 15.59,-6.08 32.16,-9.11 49.9,-9.11 17.72,0 34.29,3.03 49.9,9.11 15.51,6.08 29.16,14.51 40.86,25.3 11.7,10.78 20.82,23.52 27.56,38.22 6.73,14.7 10.11,30.88 10.11,48.53 0,10.19 -1.34,20.1 -3.99,29.7 -2.58,9.6 -6.21,18.33 -10.83,26.17 -4.52,7.84 -9.91,14.6 -16.12,20.29 -6.12,5.68 -12.85,9.71 -20.3,12.07zm-130.63 -79.7c0,8.73 1.41,16.18 4.24,22.44 2.84,6.38 6.75,11.67 11.7,15.99 4.97,4.31 10.73,7.64 17.28,9.79 6.56,2.16 13.39,3.24 20.47,3.24 14.89,0 27.57,-4.31 38.02,-13.03 10.45,-8.63 15.68,-21.47 15.68,-38.43 0,-10.59 -1.4,-19.51 -4.26,-26.57 -2.83,-7.16 -6.73,-12.94 -11.7,-17.44 -4.94,-4.62 -10.62,-7.85 -17.01,-9.81 -6.37,-1.97 -13.29,-2.94 -20.74,-2.94 -7.08,0 -13.92,1.08 -20.47,3.24 -6.56,2.16 -12.31,5.49 -17.28,10.1 -4.95,4.5 -8.86,10.29 -11.7,17.44 -2.83,7.07 -4.24,15.78 -4.24,25.98zm53.44 242.61c9.21,0 18.07,-0.98 26.41,-2.93 8.42,-1.97 15.69,-5.3 21.9,-10.1 6.19,-4.71 11.25,-11.08 14.98,-19.22 3.72,-8.03 5.57,-18.33 5.57,-30.97 0,-9.81 -1.85,-18.73 -5.57,-26.57 -3.73,-7.94 -8.79,-14.7 -14.98,-20.39 -6.21,-5.7 -13.48,-10.1 -21.9,-13.04 -8.34,-2.94 -17.2,-4.42 -26.41,-4.42 -9.22,0 -18,1.37 -26.16,4.12 -8.23,2.74 -15.42,6.86 -21.61,12.45 -6.21,5.49 -11.26,12.26 -14.98,20.39 -3.72,8.04 -5.6,17.25 -5.6,27.46 0,12.63 1.88,22.94 5.6,30.97 3.72,8.15 8.77,14.51 14.98,19.22 6.19,4.79 13.38,8.13 21.61,10.1 8.16,1.95 16.93,2.93 26.16,2.93zm348.58 -228.2c20.21,-1.18 38.56,1.76 55.04,8.82 16.5,7.05 30.57,17.25 42.28,30.59 11.7,13.33 20.74,29.41 27.12,48.22 6.38,18.83 9.75,39.61 10.1,62.36 0,13.71 -1.06,26.07 -3.19,37.04 -2.11,10.99 -4.87,20.78 -8.25,29.41 -3.35,8.63 -7.16,16.18 -11.41,22.65 -4.27,6.47 -8.53,12.05 -12.78,16.76 -8.86,9.81 -18.33,17.65 -28.45,23.54 -10.1,5.87 -20.21,10.48 -30.31,13.82 -10.11,3.34 -19.67,5.49 -28.71,6.47 -9.04,0.98 -16.93,1.47 -23.67,1.47 -15.96,0 -31.2,-2.45 -45.73,-7.34 -14.54,-4.91 -27.75,-11.77 -39.62,-20.59 -11.88,-8.82 -22.17,-19.41 -30.85,-31.75 -8.69,-12.36 -15.14,-25.98 -19.4,-40.89 -7.1,-24.7 -10.11,-48.32 -9.05,-70.87 1.08,-22.54 6.38,-46.17 15.96,-70.87 3.19,-7.46 9.14,-18.83 17.82,-34.12 8.67,-15.3 18.78,-32.25 30.3,-50.87 11.53,-18.62 23.67,-37.85 36.43,-57.65 12.77,-19.79 24.64,-37.93 35.63,-54.4l92 0c-7.1,10.59 -14.7,22.06 -22.86,34.41 -8.16,12.36 -16.31,24.91 -24.47,37.64 -8.16,12.75 -16.31,25.39 -24.45,37.93 -8.16,12.55 -15.78,24.32 -22.88,35.3 2.86,-1.57 6.21,-3.03 10.11,-4.42 3.89,-1.37 8.32,-2.24 13.29,-2.64zm-10.1 228.2c9.92,0 19.24,-2.05 27.91,-6.16 8.69,-4.12 16.32,-9.71 22.88,-16.57 6.54,-6.86 11.7,-15 15.42,-24.51 3.73,-9.41 5.58,-19.5 5.58,-30.09 0,-10.58 -1.85,-20.68 -5.58,-30.09 -3.72,-9.52 -8.87,-17.75 -15.42,-24.8 -6.56,-7.05 -14.19,-12.74 -22.88,-16.86 -8.67,-4.11 -17.98,-6.18 -27.91,-6.18 -9.92,0 -19.24,2.07 -27.92,6.18 -8.69,4.12 -16.22,9.81 -22.6,16.86 -6.38,7.05 -11.44,15.29 -15.16,24.8 -3.73,9.41 -5.58,19.51 -5.58,30.09 0,10.59 1.85,20.68 5.58,30.09 3.72,9.52 8.77,17.65 15.16,24.51 6.38,6.86 13.92,12.45 22.6,16.57 8.69,4.11 18,6.16 27.92,6.16z"/>
   <path class="fil0" d="M6422.71 890.47c20.21,-1.18 38.56,1.76 55.04,8.82 16.5,7.05 30.57,17.25 42.28,30.59 11.7,13.33 20.74,29.41 27.12,48.22 6.38,18.83 9.75,39.61 10.1,62.36 0,13.71 -1.06,26.07 -3.19,37.04 -2.11,10.99 -4.87,20.78 -8.23,29.41 -3.37,8.63 -7.17,16.18 -11.43,22.65 -4.26,6.47 -8.51,12.05 -12.77,16.76 -8.87,9.81 -18.35,17.65 -28.46,23.54 -10.1,5.87 -20.2,10.48 -30.31,13.82 -10.1,3.34 -19.67,5.49 -28.71,6.47 -9.04,0.98 -16.93,1.47 -23.67,1.47 -15.96,0 -31.2,-2.45 -45.73,-7.34 -14.53,-4.91 -27.75,-11.77 -39.62,-20.59 -11.88,-8.82 -22.17,-19.41 -30.85,-31.75 -8.67,-12.36 -15.14,-25.98 -19.4,-40.89 -7.1,-24.7 -10.11,-48.32 -9.05,-70.87 1.08,-22.54 6.38,-46.17 15.96,-70.87 3.19,-7.46 9.14,-18.83 17.82,-34.12 8.69,-15.3 18.78,-32.25 30.3,-50.87 11.53,-18.62 23.67,-37.85 36.43,-57.65 12.77,-19.79 24.64,-37.93 35.63,-54.4l92 0c-7.1,10.59 -14.7,22.06 -22.86,34.41 -8.16,12.36 -16.31,24.91 -24.47,37.64 -8.16,12.75 -16.29,25.39 -24.45,37.93 -8.16,12.55 -15.78,24.32 -22.88,35.3 2.86,-1.57 6.21,-3.03 10.11,-4.42 3.89,-1.37 8.32,-2.24 13.29,-2.64zm-10.1 228.2c9.92,0 19.24,-2.05 27.92,-6.16 8.67,-4.12 16.31,-9.71 22.86,-16.57 6.54,-6.86 11.7,-15 15.42,-24.51 3.73,-9.41 5.58,-19.5 5.58,-30.09 0,-10.58 -1.85,-20.68 -5.58,-30.09 -3.72,-9.52 -8.87,-17.75 -15.42,-24.8 -6.56,-7.05 -14.19,-12.74 -22.86,-16.86 -8.69,-4.11 -18,-6.18 -27.92,-6.18 -9.92,0 -19.24,2.07 -27.92,6.18 -8.69,4.12 -16.22,9.81 -22.6,16.86 -6.37,7.05 -11.44,15.29 -15.16,24.8 -3.72,9.41 -5.58,19.51 -5.58,30.09 0,10.59 1.87,20.68 5.58,30.09 3.72,9.52 8.79,17.65 15.16,24.51 6.38,6.86 13.92,12.45 22.6,16.57 8.69,4.11 18,6.16 27.92,6.16zm264.83 25.88c0,12.15 -3.8,22.46 -11.44,30.88 -7.62,8.44 -16.93,12.65 -27.92,12.65 -10.62,0 -19.76,-4.21 -27.38,-12.65 -7.62,-8.42 -11.43,-18.73 -11.43,-30.88 0,-11.76 3.8,-21.86 11.43,-30.28 7.62,-8.44 16.76,-12.65 27.38,-12.65 10.99,0 20.3,4.21 27.92,12.65 7.64,8.42 11.44,18.52 11.44,30.28zm177.09 -248.79c42.19,0 75.15,13.23 98.91,39.7 23.74,26.46 35.63,63.42 35.63,110.87 0,21.17 -3.64,40.88 -10.99,59.11 -7.27,18.23 -18.1,34.22 -32.37,47.94 -12.94,12.55 -27.73,22.05 -44.67,28.52 -16.83,6.47 -34.65,9.71 -53.44,9.71 -18.78,0 -35.18,-2.05 -49.18,-6.18 -14,-4.11 -26.51,-9.6 -37.5,-16.47 -11,-6.86 -20.75,-14.5 -29.25,-22.94 -8.51,-8.42 -16.5,-16.96 -23.94,-25.59l38.3 -58.82c0,0 2.3,2.94 6.92,8.83 4.61,5.87 11.34,12.26 20.2,19.12 8.86,6.85 19.5,13.13 31.9,18.81 12.42,5.68 26.6,8.73 42.55,9.12 8.16,0 16.22,-1.68 24.19,-5 7.99,-3.34 15.17,-8.04 21.54,-14.12 6.38,-6.08 11.51,-13.52 15.42,-22.35 3.91,-8.82 5.84,-18.71 5.84,-29.7 0,-24.7 -5.49,-44.8 -16.48,-60.29 -10.99,-15.49 -25.71,-23.62 -44.14,-24.41 -10.99,-0.39 -20.74,0.39 -29.23,2.36 -8.51,1.95 -16.04,4.79 -22.6,8.53 -6.57,3.73 -12.14,7.84 -16.74,12.36 -4.62,4.5 -8.69,8.71 -12.24,12.63l-56.37 -33.52 35.63 -211.74 212.01 0 0 72.94 -151.92 0 -13.29 91.17c8.16,-7.07 17.11,-12.26 26.86,-15.59 9.75,-3.34 19.24,-5 28.46,-5zm401.85 60c8.5,2.35 16.74,6.56 24.91,12.63 8.06,6.08 15.16,13.63 21.09,22.65 6.03,9.02 10.9,19.02 14.54,30.01 3.72,10.97 5.58,22.34 5.58,34.12 0,23.13 -3.73,43.33 -11.18,60.58 -7.45,17.24 -17.62,31.46 -30.75,42.64 -13.13,11.18 -28.37,19.5 -45.64,24.99 -17.39,5.49 -35.91,8.23 -55.74,8.23 -19.86,0 -38.3,-2.74 -55.49,-8.23 -17.09,-5.49 -32.26,-13.82 -45.38,-24.99 -13.12,-11.18 -23.3,-25.4 -30.75,-42.64 -7.45,-17.25 -11.18,-37.45 -11.18,-60.58 0,-11.77 1.95,-23.14 5.86,-34.12 3.8,-10.99 8.86,-20.88 14.98,-29.71 6.21,-8.82 13.2,-16.37 21.17,-22.63 7.88,-6.28 15.87,-10.59 24.02,-12.94 -5.67,-2.75 -11.43,-6.97 -17.46,-12.65 -5.93,-5.68 -11.43,-12.55 -16.57,-20.59 -5.06,-8.03 -9.21,-16.76 -12.4,-26.17 -3.1,-9.4 -4.71,-19.02 -4.71,-28.81 0,-17.65 3.38,-33.82 10.11,-48.53 6.73,-14.7 15.77,-27.44 27.29,-38.22 11.51,-10.78 25.08,-19.22 40.6,-25.3 15.58,-6.08 32.16,-9.11 49.9,-9.11 17.72,0 34.29,3.03 49.9,9.11 15.51,6.08 29.15,14.51 40.85,25.3 11.7,10.78 20.84,23.52 27.57,38.22 6.73,14.7 10.1,30.88 10.1,48.53 0,10.19 -1.33,20.1 -3.99,29.7 -2.56,9.6 -6.21,18.33 -10.81,26.17 -4.52,7.84 -9.92,14.6 -16.13,20.29 -6.11,5.68 -12.84,9.71 -20.29,12.07zm-130.65 -79.7c0,8.73 1.41,16.18 4.26,22.44 2.84,6.38 6.73,11.67 11.69,15.99 4.97,4.31 10.73,7.64 17.3,9.79 6.56,2.16 13.38,3.24 20.47,3.24 14.88,0 27.56,-4.31 38.02,-13.03 10.45,-8.63 15.68,-21.47 15.68,-38.43 0,-10.59 -1.41,-19.51 -4.26,-26.57 -2.83,-7.16 -6.73,-12.94 -11.7,-17.44 -4.95,-4.62 -10.64,-7.85 -17.01,-9.81 -6.38,-1.97 -13.29,-2.94 -20.74,-2.94 -7.1,0 -13.92,1.08 -20.47,3.24 -6.57,2.16 -12.33,5.49 -17.3,10.1 -4.95,4.5 -8.85,10.29 -11.69,17.44 -2.84,7.07 -4.26,15.78 -4.26,25.98zm53.45 242.61c9.21,0 18.07,-0.98 26.41,-2.93 8.41,-1.97 15.68,-5.3 21.89,-10.1 6.21,-4.71 11.25,-11.08 14.98,-19.22 3.72,-8.03 5.58,-18.33 5.58,-30.97 0,-9.81 -1.87,-18.73 -5.58,-26.57 -3.73,-7.94 -8.77,-14.7 -14.98,-20.39 -6.21,-5.7 -13.48,-10.1 -21.89,-13.04 -8.34,-2.94 -17.2,-4.42 -26.41,-4.42 -9.22,0 -18,1.37 -26.16,4.12 -8.23,2.74 -15.42,6.86 -21.63,12.45 -6.21,5.49 -11.25,12.26 -14.98,20.39 -3.72,8.04 -5.58,17.25 -5.58,27.46 0,12.63 1.87,22.94 5.58,30.97 3.73,8.15 8.77,14.51 14.98,19.22 6.21,4.79 13.39,8.13 21.63,10.1 8.16,1.95 16.93,2.93 26.16,2.93zm395.9 -151.73c7.1,2.74 14.37,6.46 21.82,11.16 7.43,4.71 14.27,10.89 20.47,18.54 6.21,7.64 11.25,17.25 15.14,28.81 3.91,11.57 5.86,25.4 5.86,41.47 0,3.92 -0.26,8.71 -0.8,14.41 -0.52,5.68 -1.6,11.85 -3.19,18.52 -1.59,6.66 -3.91,13.52 -6.91,20.58 -3.02,7.07 -7.01,14.12 -11.96,21.17 -7.46,10.2 -15.87,18.54 -25.27,25.01 -9.4,6.47 -19.15,11.56 -29.23,15.29 -10.11,3.73 -20.13,6.28 -30.06,7.65 -9.91,1.37 -19.31,2.05 -28.18,2.05 -22.68,0 -42,-4.21 -57.96,-12.74 -15.96,-8.54 -29.16,-19.02 -39.62,-31.48 -10.46,-12.45 -18.7,-25.49 -24.73,-39.3 -6.02,-13.73 -10.27,-25.68 -12.75,-35.88l71.26 -22.94c0.35,1.57 1.24,6.08 2.65,13.52 1.41,7.45 4.34,15.3 8.77,23.54 4.43,8.23 10.73,15.68 18.89,22.34 8.15,6.67 19.32,10 33.49,10 20.58,0 35.89,-5.19 46.01,-15.48 10.1,-10.39 15.16,-22.56 15.16,-36.56 0,-14.91 -2.13,-26.77 -6.38,-35.79 -4.26,-8.92 -10.45,-15.97 -18.61,-21.07 -8.15,-5 -18.35,-8.42 -30.57,-10.19 -12.23,-1.78 -26.33,-3.05 -42.29,-3.83l0 -63.52c15.26,-0.79 29,-1.87 41.23,-3.24 12.24,-1.37 22.52,-4.21 30.84,-8.53 8.34,-4.31 14.72,-10.58 19.15,-18.81 4.43,-8.23 6.65,-19.41 6.65,-33.53 0,-14.12 -5.06,-26.27 -15.16,-36.46 -10.11,-10.2 -25.43,-15.3 -46.01,-15.3 -14.16,0 -25.34,3.34 -33.49,10 -8.16,6.67 -14.46,14.12 -18.89,22.35 -4.43,8.23 -7.36,15.99 -8.77,23.23 -1.41,7.26 -2.3,11.67 -2.65,13.23l-71.26 -22.94c2.48,-10.19 6.73,-22.15 12.75,-35.88 6.03,-13.71 14.27,-26.76 24.73,-39.1 10.46,-12.36 23.67,-22.75 39.62,-31.19 15.96,-8.42 35.28,-12.63 57.96,-12.63 24.83,0 45.92,3.82 63.29,11.47 17.37,7.64 31.38,17.44 42,29.41 10.65,11.95 18.36,25.28 23.14,39.99 4.78,14.7 7.18,29.31 7.18,43.82 0,16.07 -1.87,29.51 -5.58,40.29 -3.72,10.78 -8.69,19.99 -14.89,27.64 -6.21,7.64 -13.03,13.82 -20.47,18.52 -7.45,4.71 -14.89,8.82 -22.34,12.36zm256.32 -71.17c42.2,0 75.17,13.23 98.92,39.7 23.74,26.46 35.63,63.42 35.63,110.87 0,21.17 -3.64,40.88 -10.99,59.11 -7.27,18.23 -18.1,34.22 -32.37,47.94 -12.94,12.55 -27.73,22.05 -44.67,28.52 -16.83,6.47 -34.65,9.71 -53.44,9.71 -18.8,0 -35.18,-2.05 -49.18,-6.18 -14,-4.11 -26.51,-9.6 -37.51,-16.47 -10.99,-6.86 -20.74,-14.5 -29.23,-22.94 -8.51,-8.42 -16.5,-16.96 -23.94,-25.59l38.3 -58.82c0,0 2.3,2.94 6.91,8.83 4.62,5.87 11.35,12.26 20.21,19.12 8.86,6.85 19.5,13.13 31.9,18.81 12.42,5.68 26.6,8.73 42.55,9.12 8.15,0 16.22,-1.68 24.19,-5 7.99,-3.34 15.16,-8.04 21.54,-14.12 6.38,-6.08 11.51,-13.52 15.42,-22.35 3.91,-8.82 5.84,-18.71 5.84,-29.7 0,-24.7 -5.49,-44.8 -16.48,-60.29 -10.99,-15.49 -25.71,-23.62 -44.14,-24.41 -10.99,-0.39 -20.74,0.39 -29.23,2.36 -8.51,1.95 -16.04,4.79 -22.6,8.53 -6.57,3.73 -12.14,7.84 -16.76,12.36 -4.61,4.5 -8.67,8.71 -12.23,12.63l-56.37 -33.52 35.63 -211.74 212.01 0 0 72.94 -151.92 0 -13.29 91.17c8.16,-7.07 17.09,-12.26 26.86,-15.59 9.75,-3.34 19.24,-5 28.45,-5z"/>
  </g>
  <path class="fil0" d="M310.56 364.32c-18.54,7.51 -50.03,13.76 -78.42,13.76 -83.97,0 -133.36,-53.12 -133.36,-137.48 0,-93.75 58.03,-139.36 132.74,-139.36 33.33,0 59.88,7.51 79.03,15.62l19.13 -75.62c-16.67,-8.74 -53.72,-18.74 -102.51,-18.74 -125.92,0 -227.19,79.99 -227.19,223.72 0,119.98 74.09,210.59 217.94,210.59 50.64,0 89.52,-9.37 106.82,-18.13l-14.19 -74.37zm162.37 86.24l0 -126.86c0,-68.74 -1.24,-128.11 -3.72,-183.72l1.85 -0.63c20.37,49.36 47.55,103.73 72.24,148.73l88.91 162.47 98.77 0 0 -421.18 -86.43 0 0 123.1c0,63.12 1.87,119.99 8.03,175.6l-1.85 0c-18.52,-47.49 -43.22,-99.98 -67.91,-144.36l-86.45 -154.34 -109.89 0 0 421.18 86.45 0zm755.69 -86.24c-18.54,7.51 -50.01,13.76 -78.42,13.76 -83.95,0 -133.36,-53.12 -133.36,-137.48 0,-93.75 58.03,-139.36 132.74,-139.36 33.33,0 59.88,7.51 79.03,15.62l19.13 -75.62c-16.67,-8.74 -53.72,-18.74 -102.49,-18.74 -125.94,0 -227.19,79.99 -227.19,223.72 0,119.98 74.09,210.59 217.92,210.59 50.64,0 89.54,-9.37 106.82,-18.13l-14.19 -74.37zm204.97 -226.21c-96.92,0 -161.15,63.12 -161.15,161.85 0,98.75 67.91,157.49 156.21,157.49 80.88,0 159.28,-51.25 159.28,-163.1 0,-91.87 -61.73,-156.24 -154.34,-156.24zm-2.46 67.49c42.6,0 59.88,46.25 59.88,91.87 0,55 -23.46,91.87 -59.88,91.87 -40.15,0 -61.75,-39.38 -61.75,-91.87 0,-45 16.66,-91.87 61.75,-91.87zm214.85 244.97l91.37 0 0 -178.09c0,-7.51 0.61,-16.25 3.7,-23.75 5.57,-15.62 19.76,-34.36 43.84,-34.36 29.64,0 43.22,26.25 43.22,64.98l0 171.23 91.37 0 0 -178.72c0,-7.51 1.22,-17.5 3.7,-24.38 6.18,-18.11 21.61,-33.11 43.22,-33.11 30.25,0 44.45,25.62 44.45,69.98l0 166.23 91.37 0 0 -179.97c0,-91.24 -43.84,-132.48 -101.86,-132.48 -22.24,0 -40.75,5 -57.42,15 -14.21,8.76 -27.79,21.25 -38.91,36.87l-1.22 0c-12.97,-31.87 -43.84,-51.86 -82.73,-51.86 -51.86,0 -78.4,28.75 -91.37,48.12l-1.87 0 -4.31 -41.24 -79.03 0c1.24,26.87 2.48,59.36 2.48,97.48l0 208.1zm815.57 -305.58l-94.46 0 0 181.84c0,7.51 -0.61,15.01 -3.07,20.62 -6.18,15.01 -21,33.12 -46.92,33.12 -32.73,0 -46.92,-26.87 -46.92,-71.23l0 -164.35 -94.46 0 0 179.35c0,94.36 45.06,133.11 106.19,133.11 54.33,0 82.73,-31.24 94.46,-50l1.85 0 4.33 43.12 81.49 0c-1.24,-25.62 -2.48,-58.12 -2.48,-98.1l0 -207.47zm75.33 305.58l93.83 0 0 -176.23c0,-8.74 1.24,-18.11 3.7,-23.74 6.18,-17.5 21.61,-35.63 47.55,-35.63 33.95,0 47.54,26.87 47.54,66.25l0 169.35 93.83 0 0 -181.23c0,-89.99 -46.3,-131.23 -108.03,-131.23 -50.01,0 -80.89,29.36 -93.22,48.75l-1.87 0 -4.31 -41.87 -81.51 0c1.24,26.87 2.48,59.36 2.48,97.48l0 208.1zm455.63 0l0 -305.58 -93.85 0 0 305.58 93.85 0zm-46.92 -438.69c-30.25,0 -50.01,20.62 -49.4,48.12 -0.61,26.25 19.15,47.49 48.79,47.49 30.87,0 50.61,-21.25 50.61,-47.49 -0.61,-27.5 -19.75,-48.12 -50,-48.12zm337.73 361.2c-14.21,5.63 -31.49,9.37 -53.72,9.37 -45.69,0 -82.73,-29.38 -82.73,-85.62 -0.63,-50 31.49,-85.62 80.86,-85.62 24.72,0 41.37,4.37 52.48,9.37l14.82 -70.61c-19.76,-7.51 -46.92,-11.88 -71.61,-11.88 -112.36,0 -172.88,73.11 -172.88,162.47 0,96.24 62.36,156.24 159.92,156.24 35.81,0 67.28,-6.25 83.94,-13.76l-11.09 -69.98zm321.65 77.48c-3.1,-16.88 -4.33,-45 -4.33,-74.37l0 -106.24c0,-71.86 -32.1,-131.86 -132.74,-131.86 -54.94,0 -96.31,15 -117.3,26.87l17.28 61.24c19.76,-12.49 52.48,-23.11 83.34,-23.11 46.31,0 54.95,23.11 54.95,39.36l0 4.37c-106.8,-0.61 -177.18,37.5 -177.18,116.86 0,48.75 36.42,93.75 97.54,93.75 35.81,0 66.67,-13.13 86.43,-37.5l1.85 0 5.57 30.62 84.58 0zm-95.7 -111.23c0,5.63 -0.63,11.25 -1.87,16.25 -6.15,19.37 -25.3,34.99 -48.76,34.99 -20.98,0 -37.04,-11.86 -37.04,-36.24 0,-36.87 38.28,-48.75 87.67,-48.12l0 33.12zm380.93 33.12c-14.21,6.25 -31.48,10 -53.72,10 -45.69,0 -82.73,-29.38 -82.73,-85.62 -0.61,-50 31.49,-85.62 80.88,-85.62 24.7,0 41.36,4.37 52.48,9.37l14.81 -70.61c-19.75,-7.51 -46.91,-11.88 -71.61,-11.88 -112.36,0 -172.86,73.11 -172.86,162.47 0,84.36 48.16,141.24 126.57,153.1l-24.69 52.49c34.57,3.76 48.76,10.62 48.76,23.13 0,11.88 -9.88,15.62 -22.21,15.62 -11.12,0 -25.33,-3.12 -34.6,-8.74l-12.33 38.75c14.19,8.74 34.57,11.86 52.46,11.86 35.82,0 74.09,-14.37 74.09,-58.12 0,-28.74 -21.61,-44.99 -45.06,-50.61l11.73 -21.25c30.25,-1.25 55.55,-6.88 69.13,-13.76l-11.1 -70.61zm321.65 78.11c-3.09,-16.88 -4.31,-45 -4.31,-74.37l0 -106.24c0,-71.86 -32.1,-131.86 -132.74,-131.86 -54.94,0 -96.33,15 -117.31,26.87l17.3 61.24c19.75,-12.49 52.48,-23.11 83.34,-23.11 46.3,0 54.95,23.11 54.95,39.36l0 4.37c-106.82,-0.61 -177.19,37.5 -177.19,116.86 0,48.75 36.43,93.75 97.55,93.75 35.81,0 66.67,-13.13 86.42,-37.5l1.87 0 5.55 30.62 84.58 0zm-95.7 -111.23c0,5.63 -0.61,11.25 -1.85,16.25 -6.16,19.37 -25.31,34.99 -48.76,34.99 -21,0 -37.04,-11.86 -37.04,-36.24 0,-36.87 38.28,-48.75 87.66,-48.12l0 33.12zm-83.95 -237.46c0.61,-18.76 6.16,-28.13 14.81,-28.13 8.03,0 12.36,3.75 23.48,10 12.96,6.88 25.3,13.76 42.6,13.76 32.72,0 52.48,-23.13 50.63,-80.62l-43.22 0c-1.22,22.5 -5.57,28.13 -16.06,28.13 -7.4,0 -16.04,-6.25 -25.93,-12.5 -12.34,-6.25 -24.7,-12.5 -40.13,-12.5 -31.48,0 -52.48,29.38 -50.61,81.87l44.45 0zm393.28 36.24c-96.92,0 -161.15,63.12 -161.15,161.85 0,98.75 67.92,157.49 156.21,157.49 80.88,0 159.3,-51.25 159.3,-163.1 0,-91.87 -61.75,-156.24 -154.36,-156.24zm-2.46 67.49c42.6,0 59.88,46.25 59.88,91.87 0,55 -23.46,91.87 -59.88,91.87 -40.15,0 -61.75,-39.38 -61.75,-91.87 0,-45 16.66,-91.87 61.75,-91.87zm690.24 3.76l-154.98 0 0 74.37 64.21 0 0 88.11c-7.39,3.75 -24.69,6.25 -46.3,6.25 -77.16,0 -130.88,-51.25 -130.88,-138.11 0,-91.24 59.27,-136.24 137.67,-136.24 45.69,0 74.1,8.13 96.92,18.13l19.76 -76.25c-20.37,-10 -61.73,-20.62 -115.46,-20.62 -136.42,0 -237.06,79.99 -237.68,219.98 -0.61,61.86 20.37,116.86 58.66,153.1 38.27,37.5 93.22,56.86 169.16,56.86 54.95,0 109.89,-13.74 138.92,-23.74l0 -221.84zm72.22 241.21l93.85 0 0 -154.98c0,-7.49 0.61,-15 1.85,-21.25 6.16,-29.36 29.63,-48.12 64.19,-48.12 10.51,0 18.54,1.25 25.31,2.51l0 -89.36c-6.78,-1.25 -11.09,-1.25 -19.75,-1.25 -29.01,0 -66.06,18.74 -81.49,63.12l-2.48 0 -3.07 -56.24 -80.89 0c1.24,26.25 2.48,55.61 2.48,100.61l0 204.97zm484.02 0c-3.09,-16.88 -4.31,-45 -4.31,-74.37l0 -106.24c0,-71.86 -32.1,-131.86 -132.74,-131.86 -54.94,0 -96.31,15 -117.31,26.87l17.3 61.24c19.75,-12.49 52.48,-23.11 83.34,-23.11 46.3,0 54.95,23.11 54.95,39.36l0 4.37c-106.82,-0.61 -177.19,37.5 -177.19,116.86 0,48.75 36.43,93.75 97.55,93.75 35.81,0 66.67,-13.13 86.42,-37.5l1.87 0 5.55 30.62 84.58 0zm-95.7 -111.23c0,5.63 -0.61,11.25 -1.85,16.25 -6.16,19.37 -25.31,34.99 -48.76,34.99 -21,0 -37.04,-11.86 -37.04,-36.24 0,-36.87 38.28,-48.75 87.66,-48.12l0 33.12zm-24.69 -327.45l-53.1 94.99 64.83 0 75.31 -94.99 -87.04 0zm295.11 438.69l0 -235.6 88.91 0 0 235.6 93.83 0 0 -305.58 -183.36 0 0 -10.62c0,-33.75 17.28,-59.37 66.67,-59.37 29.63,0 53.72,7.51 68.54,15.62l17.91 -71.86c-18.54,-11.25 -56.82,-18.76 -88.91,-18.76 -93.24,0 -158.06,47.49 -158.06,131.86l0 13.13 -39.52 0 0 69.98 39.52 0 0 235.6 94.46 0zm473.54 -77.48c-14.21,5.63 -31.48,9.37 -53.72,9.37 -45.69,0 -82.73,-29.38 -82.73,-85.62 -0.61,-50 31.49,-85.62 80.88,-85.62 24.7,0 41.36,4.37 52.48,9.37l14.82 -70.61c-19.76,-7.51 -46.92,-11.88 -71.63,-11.88 -112.36,0 -172.86,73.11 -172.86,162.47 0,96.24 62.36,156.24 159.91,156.24 35.81,0 67.3,-6.25 83.95,-13.76l-11.1 -69.98zm321.65 77.48c-3.09,-16.88 -4.31,-45 -4.31,-74.37l0 -106.24c0,-71.86 -32.1,-131.86 -132.74,-131.86 -54.94,0 -96.33,15 -117.31,26.87l17.3 61.24c19.75,-12.49 52.48,-23.11 83.34,-23.11 46.3,0 54.95,23.11 54.95,39.36l0 4.37c-106.82,-0.61 -177.19,37.5 -177.19,116.86 0,48.75 36.43,93.75 97.55,93.75 35.81,0 66.67,-13.13 86.42,-37.5l1.87 0 5.55 30.62 84.58 0zm-95.7 -111.23c0,5.63 -0.61,11.25 -1.85,16.25 -6.16,19.37 -25.31,34.99 -48.76,34.99 -21,0 -37.04,-11.86 -37.04,-36.24 0,-36.87 38.28,-48.75 87.66,-48.12l0 33.12z"/>
  <path class="fil1 str0" d="M656.78 2856.76c35.62,0 56.53,17.27 56.53,50.73l0 6.48c-16.89,-4.68 -34.13,-7.91 -58.36,-7.91 -48.08,0 -81.1,20.87 -81.1,60.45 0,38.87 35.59,58.31 70.84,58.31 33.4,0 55.41,-15.13 68.62,-32.03l0 28.07 27.16 0 0 -113.71c0,-48.95 -29,-74.86 -80.75,-74.86 -27.53,0 -48.09,6.12 -69,15.48l8.45 22.68c17.6,-7.91 35.22,-13.67 57.61,-13.67zm1.11 69.8c23.11,0 41.85,3.96 55.78,7.91l0 18c0,29.51 -28.62,50.38 -63.49,50.38 -25.69,0 -47.71,-13.67 -47.71,-37.42 0,-23.75 19.82,-38.87 55.42,-38.87zm171.86 -67.3l60.2 0 0 -24.47 -60.2 0 0 -56.13 -28.27 0 0 56.13 -26.42 0 0 24.47 26.42 0 0 112.28c0,37.79 23.13,52.54 53.6,52.54 13.57,0 24.23,-2.87 34.13,-7.91l0 -23.75c-9.89,4.68 -17.98,6.48 -27.53,6.48 -19.09,0 -31.93,-8.28 -31.93,-30.95l0 -108.68zm114.22 78.81l150.48 0c0.38,-3.24 0.38,-6.11 0.38,-8.63 0,-54.71 -32.31,-98.6 -88.46,-98.6 -52.49,0 -91.04,43.18 -91.04,97.16 0,57.94 42.58,97.16 94.71,97.16 35.97,0 59.08,-14.03 78.17,-34.9l-17.62 -15.48c-15.4,15.84 -33.77,26.27 -59.82,26.27 -33.4,0 -62.77,-22.68 -66.8,-62.98zm0 -20.5c3.67,-36.34 28.64,-63.33 61.66,-63.33 37.82,0 57.62,29.51 60.56,63.33l-122.22 0zm221.39 -3.24c0,-34.92 24.23,-58.31 56.91,-58.31 33.4,0 52.48,21.6 52.48,56.13l0 108.68 28.26 0 0 -115.52c0,-44.26 -26.78,-74.48 -72.66,-74.48 -32.67,0 -52.49,16.19 -64.98,36.34l0 -32.4 -28.24 0 0 186.05 28.24 0 0 -106.51zm371.17 106.51l0 -262.7 -28.26 0 0 112.28c-14.69,-20.87 -37.45,-39.58 -72.69,-39.58 -45.51,0 -90.66,35.98 -90.66,97.16 0,61.54 45.15,96.81 90.66,96.81 34.87,0 57.27,-19.08 72.69,-41.39l0 37.42 28.26 0zm-27.16 -93.21c0,43.54 -33.4,72.34 -68.64,72.34 -35.97,0 -66.8,-28.07 -66.8,-72.34 0,-45.34 30.11,-71.98 66.8,-71.98 35.24,0 68.64,28.8 68.64,71.98zm116.06 -133.5l0 -30.59 -32.29 0 0 30.59 32.29 0zm-2.2 226.71l0 -186.05 -28.26 0 0 186.05 28.26 0zm208.92 -152.94c-10.26,-20.87 -30.09,-37.06 -60.91,-37.06 -31.93,0 -48.82,16.9 -61.31,35.27l0 -31.32 -28.26 0 0 186.05 28.26 0 0 -106.16c0,-34.19 22.76,-58.66 52.86,-58.66 30.11,0 48.82,20.52 48.82,55.42l0 109.4 27.89 0 0 -107.24c0,-36.71 23.86,-57.58 52.49,-57.58 30.84,0 49.18,20.15 49.18,56.13l0 108.68 28.27 0 0 -115.15c0,-46.06 -26.8,-74.85 -70.47,-74.85 -33.04,0 -53.22,16.54 -66.82,37.06zm208.2 70.17l150.48 0c0.36,-3.24 0.36,-6.11 0.36,-8.63 0,-54.71 -32.29,-98.6 -88.46,-98.6 -52.49,0 -91.04,43.18 -91.04,97.16 0,57.94 42.58,97.16 94.71,97.16 35.98,0 59.09,-14.03 78.17,-34.9l-17.6 -15.48c-15.42,15.84 -33.78,26.27 -59.84,26.27 -33.39,0 -62.77,-22.68 -66.79,-62.98zm0 -20.5c3.67,-36.34 28.62,-63.33 61.64,-63.33 37.82,0 57.64,29.51 60.58,63.33l-122.22 0zm221.39 -3.24c0,-34.92 24.22,-58.31 56.89,-58.31 33.4,0 52.49,21.6 52.49,56.13l0 108.68 28.26 0 0 -115.52c0,-44.26 -26.78,-74.48 -72.67,-74.48 -32.67,0 -52.48,16.19 -64.97,36.34l0 -32.4 -28.26 0 0 186.05 28.26 0 0 -106.51zm228.75 -55.07l60.2 0 0 -24.47 -60.2 0 0 -56.13 -28.27 0 0 56.13 -26.44 0 0 24.47 26.44 0 0 112.28c0,37.79 23.13,52.54 53.6,52.54 13.57,0 24.22,-2.87 34.13,-7.91l0 -23.75c-9.91,4.68 -18,6.48 -27.53,6.48 -19.09,0 -31.93,-8.28 -31.93,-30.95l0 -108.68zm283.43 68.38c0,-52.9 -41.85,-96.79 -98.73,-96.79 -57.26,0 -99.11,44.62 -99.11,97.52 0,52.9 41.47,96.79 98.37,96.79 57.27,0 99.47,-44.62 99.47,-97.52zm-29 0.73c0,39.94 -28.62,71.96 -69.73,71.96 -40.02,0 -70.11,-32.38 -70.11,-72.69 0,-40.29 28.27,-72.33 69.37,-72.33 40,0 70.47,32.38 70.47,73.05zm381.42 -21.23c0,-75.21 -70.1,-142.51 -160.02,-142.51 -89.91,0 -160.75,71.61 -160.75,157.62 0,86.01 69.73,156.89 163.68,156.89 38.18,0 69.02,-10.07 97.27,-26.99l-5.87 -9.71c-28.26,16.19 -54.68,24.47 -91.4,24.47 -88.08,0 -150.48,-64.41 -150.48,-144.66 0,-79.89 63.13,-145.39 147.55,-145.39 84.06,0 146.81,64.06 146.81,130.28 0,51.09 -25.33,74.13 -51.38,74.13 -19.8,0 -31.19,-10.8 -31.19,-29.16 0,-3.95 0.74,-11.86 2.56,-21.95l14.69 -81.68 -24.6 -3.25 -4.78 24.83c-8.79,-15.11 -24.95,-29.86 -53.58,-29.86 -41.46,0 -84.77,38.5 -84.77,89.59 0,39.59 29.73,65.5 65.69,65.5 27.53,0 46.24,-13.68 60.55,-30.24 6.98,18 24.6,30.24 51.4,30.24 33.75,0 68.62,-26.99 68.62,-88.17zm-114.88 1.08c0,33.82 -28.62,64.78 -60.2,64.78 -26.06,0 -44.77,-16.55 -44.77,-44.99 0,-37.07 29.36,-65.49 60.19,-65.49 25.69,0 44.78,19.43 44.78,45.7zm321.61 80.97l-18 -16.55c-15.05,15.84 -33.77,27.7 -57.99,27.7 -39.65,0 -69.75,-32.02 -69.75,-72.69 0,-40.29 29.36,-72.33 67.91,-72.33 25.69,0 42.57,12.59 57.64,28.07l18.71 -19.44c-17.62,-18.35 -40.02,-33.09 -75.98,-33.09 -55.42,0 -97.27,44.62 -97.27,97.52 0,52.54 41.85,96.79 97.27,96.79 35.6,0 58.36,-15.11 77.45,-35.98zm67.59 -74.85c0,-34.92 24.23,-58.31 56.91,-58.31 33.4,0 52.48,21.6 52.48,56.13l0 108.68 28.26 0 0 -115.52c0,-44.26 -26.78,-74.48 -72.66,-74.48 -32.67,0 -52.49,16.19 -64.98,36.34l0 -32.4 -28.26 0 0 186.05 28.26 0 0 -106.51zm371.16 74.13l0 -153.67 -28.24 0 0 33.47c-15.42,-20.15 -38.55,-37.42 -74.15,-37.42 -45.16,0 -89.2,33.46 -89.2,88.17 0,54.33 43.67,87.44 89.2,87.44 34.86,0 57.99,-17.63 74.5,-39.22l0 21.95c0,43.54 -27.15,66.22 -69,66.22 -27.15,0 -51.38,-8.28 -73.04,-23.75l-12.84 21.58c25.31,17.28 54.69,25.91 86.26,25.91 58.35,0 96.52,-30.59 96.52,-90.67zm-27.15 -69.82c0,38.14 -33.77,63.33 -69.75,63.33 -35.24,0 -65.69,-25.55 -65.69,-63.7 0,-38.87 29.73,-62.97 65.69,-62.97 35.98,0 69.75,24.83 69.75,63.33zm111.28 28.07c0,-56.13 33.78,-85.28 75.24,-85.28l2.22 0 0 -29.87c-35.97,-1.44 -63.51,20.87 -77.45,51.82l0 -48.59 -28.26 0 0 186.05 28.26 0 0 -74.13zm172.59 -89.96c35.62,0 56.53,17.27 56.53,50.73l0 6.48c-16.89,-4.68 -34.13,-7.91 -58.36,-7.91 -48.08,0 -81.1,20.87 -81.1,60.45 0,38.87 35.59,58.31 70.84,58.31 33.4,0 55.41,-15.13 68.62,-32.03l0 28.07 27.16 0 0 -113.71c0,-48.95 -29,-74.86 -80.75,-74.86 -27.53,0 -48.09,6.12 -69,15.48l8.45 22.68c17.6,-7.91 35.22,-13.67 57.61,-13.67zm1.11 69.8c23.11,0 41.85,3.96 55.78,7.91l0 18c0,29.51 -28.62,50.38 -63.49,50.38 -25.69,0 -47.71,-13.67 -47.71,-37.42 0,-23.75 19.82,-38.87 55.42,-38.87zm303.25 -132.42l0 -30.59 -32.29 0 0 30.59 32.29 0zm-129.19 41.39l0 -15.13c0,-26.62 11,-39.58 33.02,-39.58 9.55,0 17.27,1.81 27.53,4.68l0 -24.1c-9.17,-3.25 -17.98,-4.68 -31.2,-4.68 -36.33,0 -57.24,21.58 -57.24,62.26l0 16.19 -26.06 0 0 24.1 26.06 0 0 161.58 28.26 0 0 -161.58 59.82 0 0 -23.74 -60.19 0zm126.99 185.32l0 -186.05 -27.89 0 0 186.05 27.89 0zm221.77 -31.67l-17.98 -16.55c-15.05,15.84 -33.77,27.7 -58,27.7 -39.64,0 -69.73,-32.02 -69.73,-72.69 0,-40.29 29.36,-72.33 67.91,-72.33 25.68,0 42.57,12.59 57.62,28.07l18.71 -19.44c-17.62,-18.35 -40.02,-33.09 -75.98,-33.09 -55.41,0 -97.26,44.62 -97.26,97.52 0,52.54 41.85,96.79 97.26,96.79 35.62,0 58.36,-15.11 77.45,-35.98zm107.97 -132.42c35.62,0 56.53,17.27 56.53,50.73l0 6.48c-16.89,-4.68 -34.13,-7.91 -58.35,-7.91 -48.09,0 -81.11,20.87 -81.11,60.45 0,38.87 35.59,58.31 70.84,58.31 33.4,0 55.41,-15.13 68.62,-32.03l0 28.07 27.16 0 0 -113.71c0,-48.95 -29,-74.86 -80.75,-74.86 -27.53,0 -48.09,6.12 -69,15.48l8.45 22.68c17.6,-7.91 35.22,-13.67 57.61,-13.67zm1.11 69.8c23.11,0 41.85,3.96 55.78,7.91l0 18c0,29.51 -28.62,50.38 -63.49,50.38 -25.69,0 -47.71,-13.67 -47.71,-37.42 0,-23.75 19.82,-38.87 55.42,-38.87zm165.97 94.29l0 -37.79 -33.77 0 0 37.79 33.77 0zm207.82 -31.67l-17.98 -16.55c-15.05,15.84 -33.77,27.7 -58,27.7 -39.64,0 -69.73,-32.02 -69.73,-72.69 0,-40.29 29.36,-72.33 67.91,-72.33 25.68,0 42.57,12.59 57.62,28.07l18.71 -19.44c-17.62,-18.35 -40.02,-33.09 -75.98,-33.09 -55.41,0 -97.26,44.62 -97.26,97.52 0,52.54 41.85,96.79 97.26,96.79 35.62,0 58.36,-15.11 77.45,-35.98zm219.93 -61.54c0,-52.9 -41.85,-96.79 -98.73,-96.79 -57.26,0 -99.11,44.62 -99.11,97.52 0,52.9 41.47,96.79 98.37,96.79 57.27,0 99.47,-44.62 99.47,-97.52zm-29 0.73c0,39.94 -28.62,71.96 -69.73,71.96 -40.02,0 -70.11,-32.38 -70.11,-72.69 0,-40.29 28.27,-72.33 69.37,-72.33 40,0 70.47,32.38 70.47,73.05zm223.23 -60.46c-10.27,-20.87 -30.09,-37.06 -60.93,-37.06 -31.93,0 -48.8,16.9 -61.29,35.27l0 -31.32 -28.26 0 0 186.05 28.26 0 0 -106.16c0,-34.19 22.75,-58.66 52.86,-58.66 30.09,0 48.8,20.52 48.8,55.42l0 109.4 27.91 0 0 -107.24c0,-36.71 23.86,-57.58 52.48,-57.58 30.85,0 49.18,20.15 49.18,56.13l0 108.68 28.27 0 0 -115.15c0,-46.06 -26.8,-74.85 -70.46,-74.85 -33.05,0 -53.23,16.54 -66.82,37.06zm221.77 152.94l0 -37.79 -33.78 0 0 37.79 33.78 0zm243.79 -93.21c0,-61.53 -45.15,-96.79 -90.66,-96.79 -34.87,0 -57.27,19.06 -72.67,41.37l0 -114.08 -28.26 0 0 262.7 28.26 0 0 -35.63c14.67,20.88 37.44,39.59 72.67,39.59 45.88,0 90.66,-35.99 90.66,-97.17zm-29 0.36c0,45.34 -30.11,71.98 -66.8,71.98 -35.24,0 -68.64,-28.8 -68.64,-72.34 0,-43.18 33.4,-71.98 68.64,-71.98 35.97,0 66.8,28.08 66.8,72.34zm102.11 18.71c0,-56.13 33.77,-85.28 75.24,-85.28l2.22 0 0 -29.87c-35.97,-1.44 -63.51,20.87 -77.45,51.82l0 -48.59 -28.26 0 0 186.05 28.26 0 0 -74.13z"/>
  <path class="fil2" d="M196.69 2390.21c-38.76,0 -70.87,30.94 -70.87,69.5 0,38.55 31.55,69.5 70.87,69.5 39.33,0 70.88,-31.49 70.88,-69.5 0,-38.01 -32.1,-69.5 -70.88,-69.5zm115.2 -42.35c-14.4,-14.66 -34.89,-22.27 -58.16,-22.27l-114.06 0c-48.19,0 -80.3,31.49 -80.3,78.74l0 111.29c0,23.35 7.75,43.44 23.26,58.1 14.95,14.11 34.87,21.17 57.58,21.17l112.98 0c23.81,0 43.73,-7.61 58.15,-21.17 14.94,-14.12 22.69,-34.22 22.69,-57.56l0 -111.83c0,-22.82 -7.75,-42.36 -22.14,-56.47zm-2.22 168.3c0,16.83 -6.11,30.41 -16.06,39.64 -9.97,9.24 -23.81,14.12 -40.43,14.12l-112.98 0c-16.61,0 -30.46,-4.88 -40.43,-14.12 -9.97,-9.76 -14.94,-23.35 -14.94,-40.18l0 -111.29c0,-16.29 4.97,-29.87 14.94,-39.64 9.41,-9.24 23.81,-14.12 40.43,-14.12l114.08 0c16.61,0 30.46,4.88 40.43,14.66 9.43,9.76 14.97,23.35 14.97,39.1l0 111.83 0 0zm-23.27 -127.59c0,-8.7 -7.18,-15.75 -16.04,-15.75 -8.87,0 -16.07,7.05 -16.07,15.75 0,8.7 7.2,15.74 16.07,15.74 8.86,0 16.04,-7.04 16.04,-15.74zm-89.71 115.65c-24.92,0 -45.41,-20.1 -45.41,-44.52 0,-24.44 20.49,-44.53 45.41,-44.53 24.93,0 45.42,20.1 45.42,44.53 0,24.42 -20.49,44.52 -45.42,44.52z"/>
  <path class="fil1 str0" d="M750.41 2527.11l-17.98 -16.55c-15.05,15.84 -33.77,27.7 -58,27.7 -39.64,0 -69.73,-32.02 -69.73,-72.69 0,-40.29 29.36,-72.33 67.91,-72.33 25.68,0 42.57,12.59 57.62,28.07l18.71 -19.44c-17.6,-18.35 -40,-33.09 -75.98,-33.09 -55.41,0 -97.26,44.62 -97.26,97.52 0,52.54 41.85,96.79 97.26,96.79 35.62,0 58.38,-15.11 77.45,-35.98zm74.88 -74.85c0,-34.92 24.22,-58.31 56.89,-58.31 33.4,0 52.49,21.6 52.49,56.13l0 108.68 28.26 0 0 -115.52c0,-44.26 -26.78,-74.48 -72.67,-74.48 -32.67,0 -52.48,16.19 -64.97,36.34l0 -32.4 -28.26 0 0 186.05 28.26 0 0 -106.51zm378.43 74.13l0 -153.67 -28.26 0 0 33.47c-15.42,-20.15 -38.55,-37.42 -74.15,-37.42 -45.15,0 -89.19,33.46 -89.19,88.17 0,54.33 43.66,87.44 89.19,87.44 34.86,0 57.99,-17.63 74.5,-39.22l0 21.95c0,43.54 -27.15,66.22 -68.99,66.22 -27.16,0 -51.38,-8.28 -73.04,-23.75l-12.85 21.58c25.31,17.28 54.69,25.91 86.26,25.91 58.36,0 96.53,-30.59 96.53,-90.67zm-27.16 -69.82c0,38.14 -33.77,63.33 -69.73,63.33 -35.25,0 -65.69,-25.55 -65.69,-63.7 0,-38.87 29.71,-62.97 65.69,-62.97 35.97,0 69.73,24.83 69.73,63.33zm118.55 28.07c0,-56.13 33.78,-85.28 75.24,-85.28l2.22 0 0 -29.87c-35.97,-1.44 -63.51,20.87 -77.45,51.82l0 -48.59 -28.26 0 0 186.05 28.26 0 0 -74.13zm179.86 -89.96c35.62,0 56.53,17.27 56.53,50.73l0 6.48c-16.89,-4.68 -34.13,-7.91 -58.36,-7.91 -48.08,0 -81.11,20.87 -81.11,60.45 0,38.87 35.6,58.31 70.85,58.31 33.39,0 55.41,-15.13 68.62,-32.03l0 28.07 27.16 0 0 -113.71c0,-48.95 -29,-74.86 -80.75,-74.86 -27.53,0 -48.09,6.12 -69,15.48l8.44 22.68c17.62,-7.91 35.24,-13.67 57.62,-13.67zm1.11 69.8c23.11,0 41.84,3.96 55.78,7.91l0 18c0,29.51 -28.62,50.38 -63.49,50.38 -25.71,0 -47.71,-13.67 -47.71,-37.42 0,-23.75 19.8,-38.87 55.42,-38.87zm310.52 -132.42l0 -30.59 -32.29 0 0 30.59 32.29 0zm-129.19 41.39l0 -15.13c0,-26.62 10.99,-39.58 33.02,-39.58 9.55,0 17.25,1.81 27.53,4.68l0 -24.1c-9.17,-3.25 -17.98,-4.68 -31.2,-4.68 -36.34,0 -57.26,21.58 -57.26,62.26l0 16.19 -26.06 0 0 24.1 26.06 0 0 161.58 28.26 0 0 -161.58 59.82 0 0 -23.74 -60.17 0zm126.99 185.32l0 -186.05 -27.89 0 0 186.05 27.89 0zm229.03 -31.67l-17.98 -16.55c-15.05,15.84 -33.77,27.7 -58,27.7 -39.64,0 -69.73,-32.02 -69.73,-72.69 0,-40.29 29.36,-72.33 67.91,-72.33 25.68,0 42.57,12.59 57.62,28.07l18.71 -19.44c-17.6,-18.35 -40,-33.09 -75.98,-33.09 -55.41,0 -97.26,44.62 -97.26,97.52 0,52.54 41.85,96.79 97.26,96.79 35.62,0 58.38,-15.11 77.45,-35.98zm115.24 -132.42c35.62,0 56.53,17.27 56.53,50.73l0 6.48c-16.89,-4.68 -34.13,-7.91 -58.35,-7.91 -48.09,0 -81.11,20.87 -81.11,60.45 0,38.87 35.6,58.31 70.84,58.31 33.4,0 55.41,-15.13 68.62,-32.03l0 28.07 27.16 0 0 -113.71c0,-48.95 -29,-74.86 -80.75,-74.86 -27.53,0 -48.09,6.12 -69,15.48l8.45 22.68c17.6,-7.91 35.22,-13.67 57.61,-13.67zm1.12 69.8c23.11,0 41.84,3.96 55.77,7.91l0 18c0,29.51 -28.62,50.38 -63.49,50.38 -25.69,0 -47.71,-13.67 -47.71,-37.42 0,-23.75 19.82,-38.87 55.44,-38.87zm211.39 -69.8c35.62,0 56.53,17.27 56.53,50.73l0 6.48c-16.89,-4.68 -34.13,-7.91 -58.35,-7.91 -48.09,0 -81.11,20.87 -81.11,60.45 0,38.87 35.6,58.31 70.84,58.31 33.4,0 55.41,-15.13 68.62,-32.03l0 28.07 27.18 0 0 -113.71c0,-48.95 -29,-74.86 -80.76,-74.86 -27.53,0 -48.08,6.12 -68.99,15.48l8.44 22.68c17.62,-7.91 35.22,-13.67 57.61,-13.67zm1.12 69.8c23.11,0 41.84,3.96 55.78,7.91l0 18c0,29.51 -28.64,50.38 -63.51,50.38 -25.69,0 -47.71,-13.67 -47.71,-37.42 0,-23.75 19.82,-38.87 55.44,-38.87z"/>
  <path class="fil2" d="M69.88 2793.14l253.63 0c12.43,0 22.6,10.65 22.6,22.59l0 169.06c0,11.8 -9.49,22.59 -21.31,22.59l-254.92 0c-11.8,0 -22.59,-10.16 -22.59,-22.59l0 -169.06c0,-12.43 10.16,-22.59 22.59,-22.59zm239.11 19.22l-224.57 0 104.71 104.72c4.15,4.17 10.99,4.17 15.16,0l104.71 -104.72zm0 175.81l-75.91 -75.92 -16.82 16.82c-10.78,10.78 -28.34,10.78 -39.11,0l-16.82 -16.82 -75.91 75.92 224.57 0zm-63.93 -87.9l81.83 81.83 0 -163.65 -81.83 81.83zm-96.71 0l-81.83 -81.83 0 163.65 81.83 -81.83z"/>
  <path class="fil1 str0" d="M684.37 1490.73l-27.18 0 -117.08 253.7 29.73 0 30.47 -66.57 139.83 0 30.11 66.57 31.2 0 -117.08 -253.7zm44.4 161.57l-117.09 0 58.73 -128.46 58.36 128.46zm171.77 60.46l-63.87 -154.38 -31.2 0 82.22 187.49 24.96 0 82.58 -187.49 -30.47 0 -64.22 154.38zm138.35 31.67l0 -37.79 -33.77 0 0 37.79 33.77 0zm400.08 -126.32c0,-71.25 -55.8,-125.59 -136.55,-125.59l-89.19 0 0 251.91 89.19 0c80.75,0 136.55,-55.06 136.55,-126.32zm-30.09 0.73c0,56.13 -41.49,99.31 -106.45,99.31l-60.19 0 0 -199.36 60.19 0c64.97,0 106.45,43.91 106.45,100.04zm103.51 42.82l150.48 0c0.36,-3.24 0.36,-6.11 0.36,-8.63 0,-54.71 -32.29,-98.6 -88.44,-98.6 -52.51,0 -91.05,43.18 -91.05,97.16 0,57.94 42.58,97.16 94.71,97.16 35.98,0 59.09,-14.03 78.17,-34.9l-17.6 -15.48c-15.42,15.84 -33.78,26.27 -59.84,26.27 -33.39,0 -62.77,-22.68 -66.79,-62.98zm0 -20.5c3.67,-36.34 28.62,-63.33 61.66,-63.33 37.8,0 57.62,29.51 60.56,63.33l-122.22 0zm330.7 51.09l0 -0.71c0,-33.47 -31.58,-44.62 -60.93,-53.26 -25.33,-7.55 -48.82,-14.38 -48.82,-32.02l0 -0.73c0,-15.48 14.33,-26.99 36.71,-26.99 18.35,0 38.53,6.83 56.15,18l12.84 -20.87c-19.44,-12.61 -45.13,-20.52 -68.26,-20.52 -37.44,0 -64.6,21.23 -64.6,53.26l0 0.71c0,34.19 33.04,44.26 62.77,52.54 24.96,6.85 47.35,14.03 47.35,32.76l0 0.71c0,18 -16.53,29.51 -39.27,29.51 -22.38,0 -45.15,-8.64 -65.69,-23.75l-14.31 19.79c21.28,16.92 51.38,27.35 78.53,27.35 37.82,0 67.55,-20.52 67.55,-55.78zm69.38 -30.59l150.48 0c0.36,-3.24 0.36,-6.11 0.36,-8.63 0,-54.71 -32.29,-98.6 -88.46,-98.6 -52.49,0 -91.04,43.18 -91.04,97.16 0,57.94 42.58,97.16 94.71,97.16 35.98,0 59.09,-14.03 78.17,-34.9l-17.6 -15.48c-15.42,15.84 -33.78,26.27 -59.84,26.27 -33.39,0 -62.77,-22.68 -66.79,-62.98zm0 -20.5c3.67,-36.34 28.62,-63.33 61.64,-63.33 37.82,0 57.64,29.51 60.58,63.33l-122.22 0zm350.89 -49.66c-10.27,-20.87 -30.11,-37.06 -60.93,-37.06 -31.93,0 -48.82,16.9 -61.29,35.27l0 -31.32 -28.26 0 0 186.05 28.26 0 0 -106.16c0,-34.19 22.75,-58.66 52.86,-58.66 30.09,0 48.8,20.52 48.8,55.42l0 109.4 27.89 0 0 -107.24c0,-36.71 23.86,-57.58 52.49,-57.58 30.84,0 49.18,20.15 49.18,56.13l0 108.68 28.27 0 0 -115.15c0,-46.06 -26.8,-74.85 -70.47,-74.85 -33.04,0 -53.22,16.54 -66.8,37.06zm390.16 59.73c0,-61.53 -45.13,-96.79 -90.64,-96.79 -34.87,0 -57.27,19.06 -72.69,41.37l0 -114.08 -28.26 0 0 262.7 28.26 0 0 -35.63c14.69,20.88 37.44,39.59 72.69,39.59 45.86,0 90.64,-35.99 90.64,-97.17zm-29 0.36c0,45.34 -30.09,71.98 -66.79,71.98 -35.25,0 -68.64,-28.8 -68.64,-72.34 0,-43.18 33.39,-71.98 68.64,-71.98 35.97,0 66.79,28.08 66.79,72.34zm149.75 -71.25c35.62,0 56.53,17.27 56.53,50.73l0 6.48c-16.89,-4.68 -34.13,-7.91 -58.35,-7.91 -48.09,0 -81.11,20.87 -81.11,60.45 0,38.87 35.6,58.31 70.84,58.31 33.4,0 55.41,-15.13 68.62,-32.03l0 28.07 27.18 0 0 -113.71c0,-48.95 -29,-74.86 -80.76,-74.86 -27.53,0 -48.08,6.12 -68.99,15.48l8.44 22.68c17.62,-7.91 35.22,-13.67 57.61,-13.67zm1.12 69.8c23.11,0 41.84,3.96 55.78,7.91l0 18c0,29.51 -28.64,50.38 -63.51,50.38 -25.69,0 -47.71,-13.67 -47.71,-37.42 0,-23.75 19.82,-38.87 55.44,-38.87zm171.03 20.15c0,-56.13 33.78,-85.28 75.24,-85.28l2.22 0 0 -29.87c-35.97,-1.44 -63.51,20.87 -77.45,51.82l0 -48.59 -28.26 0 0 186.05 28.26 0 0 -74.13zm293.26 41.75l0 -153.67 -28.26 0 0 33.47c-15.42,-20.15 -38.55,-37.42 -74.15,-37.42 -45.15,0 -89.19,33.46 -89.19,88.17 0,54.33 43.66,87.44 89.19,87.44 34.86,0 57.99,-17.63 74.5,-39.22l0 21.95c0,43.54 -27.15,66.22 -68.99,66.22 -27.16,0 -51.38,-8.28 -73.04,-23.75l-12.84 21.58c25.31,17.28 54.68,25.91 86.24,25.91 58.36,0 96.53,-30.59 96.53,-90.67zm-27.16 -69.82c0,38.14 -33.77,63.33 -69.73,63.33 -35.24,0 -65.69,-25.55 -65.69,-63.7 0,-38.87 29.73,-62.97 65.69,-62.97 35.97,0 69.73,24.83 69.73,63.33zm158.93 -61.89c35.62,0 56.53,17.27 56.53,50.73l0 6.48c-16.89,-4.68 -34.13,-7.91 -58.36,-7.91 -48.08,0 -81.11,20.87 -81.11,60.45 0,38.87 35.6,58.31 70.84,58.31 33.4,0 55.42,-15.13 68.64,-32.03l0 28.07 27.16 0 0 -113.71c0,-48.95 -29,-74.86 -80.75,-74.86 -27.53,0 -48.09,6.12 -69,15.48l8.44 22.68c17.62,-7.91 35.24,-13.67 57.62,-13.67zm1.11 69.8c23.11,0 41.84,3.96 55.78,7.91l0 18c0,29.51 -28.62,50.38 -63.49,50.38 -25.71,0 -47.71,-13.67 -47.71,-37.42 0,-23.75 19.8,-38.87 55.42,-38.87zm323.36 94.29l0 -262.7 -28.26 0 0 112.28c-14.67,-20.87 -37.44,-39.58 -72.67,-39.58 -45.51,0 -90.66,35.98 -90.66,97.16 0,61.54 45.15,96.81 90.66,96.81 34.87,0 57.27,-19.08 72.67,-41.39l0 37.42 28.26 0zm-27.15 -93.21c0,43.54 -33.4,72.34 -68.64,72.34 -35.98,0 -66.8,-28.07 -66.8,-72.34 0,-45.34 30.09,-71.98 66.8,-71.98 35.24,0 68.64,28.8 68.64,71.98zm276.39 0c0,-52.9 -41.87,-96.79 -98.75,-96.79 -57.26,0 -99.11,44.62 -99.11,97.52 0,52.9 41.49,96.79 98.37,96.79 57.27,0 99.49,-44.62 99.49,-97.52zm-29 0.73c0,39.94 -28.64,71.96 -69.75,71.96 -40.02,0 -70.11,-32.38 -70.11,-72.69 0,-40.29 28.27,-72.33 69.37,-72.33 40.02,0 70.49,32.38 70.49,73.05zm108.26 18.35c0,-56.13 33.77,-85.28 75.24,-85.28l2.22 0 0 -29.87c-35.97,-1.44 -63.51,20.87 -77.45,51.82l0 -48.59 -28.26 0 0 186.05 28.26 0 0 -74.13zm457.69 39.94l0 -100.41 -106.06 0 0 25.56 78.18 0 0 62.6c-17.63,14.05 -44.78,25.2 -74.16,25.2 -62.39,0 -101.66,-44.62 -101.66,-105.08 0,-56.5 40.75,-103.63 97.64,-103.63 36.33,0 58.35,11.86 78.18,28.78l18.71 -21.6c-25.71,-21.23 -52.48,-33.46 -95.8,-33.46 -77.08,0 -128.84,61.18 -128.84,130.63 0,72.33 49.94,129.9 130.67,129.9 43.31,0 79.28,-17.63 103.13,-38.5zm246.66 -59.02c0,-52.9 -41.85,-96.79 -98.73,-96.79 -57.26,0 -99.11,44.62 -99.11,97.52 0,52.9 41.47,96.79 98.37,96.79 57.27,0 99.47,-44.62 99.47,-97.52zm-29 0.73c0,39.94 -28.62,71.96 -69.73,71.96 -40.02,0 -70.11,-32.38 -70.11,-72.69 0,-40.29 28.27,-72.33 69.37,-72.33 40,0 70.47,32.38 70.47,73.05zm108.28 -14.03c0,-34.92 24.22,-58.31 56.89,-58.31 33.4,0 52.48,21.6 52.48,56.13l0 108.68 28.26 0 0 -115.52c0,-44.26 -26.78,-74.48 -72.66,-74.48 -32.67,0 -52.49,16.19 -64.97,36.34l0 -32.4 -28.26 0 0 186.05 28.26 0 0 -106.51zm312.72 -56.15l-125.89 145.03 0 17.63 164.44 0 0 -23.39 -126.26 0 126.26 -145.03 0 -17.63 -160.04 0 0 23.39 121.49 0zm157.82 -1.43c35.62,0 56.53,17.27 56.53,50.73l0 6.48c-16.89,-4.68 -34.13,-7.91 -58.35,-7.91 -48.09,0 -81.11,20.87 -81.11,60.45 0,38.87 35.6,58.31 70.84,58.31 33.4,0 55.41,-15.13 68.62,-32.03l0 28.07 27.18 0 0 -113.71c0,-48.95 -29,-74.86 -80.76,-74.86 -27.53,0 -48.08,6.12 -68.99,15.48l8.44 22.68c17.62,-7.91 35.22,-13.67 57.61,-13.67zm1.12 69.8c23.11,0 41.84,3.96 55.78,7.91l0 18c0,29.51 -28.64,50.38 -63.51,50.38 -25.69,0 -47.71,-13.67 -47.71,-37.42 0,-23.75 19.82,-38.87 55.44,-38.87zm323.36 61.91l0 -153.67 -28.26 0 0 33.47c-15.42,-20.15 -38.55,-37.42 -74.15,-37.42 -45.15,0 -89.19,33.46 -89.19,88.17 0,54.33 43.66,87.44 89.19,87.44 34.86,0 57.99,-17.63 74.5,-39.22l0 21.95c0,43.54 -27.15,66.22 -68.99,66.22 -27.16,0 -51.38,-8.28 -73.04,-23.75l-12.85 21.58c25.31,17.28 54.69,25.91 86.26,25.91 58.35,0 96.53,-30.59 96.53,-90.67zm-27.16 -69.82c0,38.14 -33.77,63.33 -69.73,63.33 -35.25,0 -65.71,-25.55 -65.71,-63.7 0,-38.87 29.73,-62.97 65.71,-62.97 35.97,0 69.73,24.83 69.73,63.33zm158.92 -61.89c35.62,0 56.53,17.27 56.53,50.73l0 6.48c-16.88,-4.68 -34.12,-7.91 -58.35,-7.91 -48.09,0 -81.11,20.87 -81.11,60.45 0,38.87 35.6,58.31 70.84,58.31 33.4,0 55.42,-15.13 68.62,-32.03l0 28.07 27.18 0 0 -113.71c0,-48.95 -29,-74.86 -80.76,-74.86 -27.53,0 -48.08,6.12 -68.99,15.48l8.44 22.68c17.62,-7.91 35.22,-13.67 57.61,-13.67zm1.12 69.8c23.11,0 41.84,3.96 55.78,7.91l0 18c0,29.51 -28.64,50.38 -63.49,50.38 -25.71,0 -47.71,-13.67 -47.71,-37.42 0,-23.75 19.8,-38.87 55.42,-38.87zm128.1 125.59l4.4 12.61c27.89,-6.12 40.73,-20.15 40.73,-49.3l0 -32.4 -33.77 0 0 37.79 13.22 0c1.47,15.48 -6.22,24.83 -24.58,31.3zm219.48 -160.49l19.45 12.59c15.05,-7.91 32.31,-14.4 53.96,-14.4 37.8,0 63.86,21.6 63.86,53.26 0,32.4 -25.33,56.13 -62.04,56.13 -26.06,0 -50.66,-13.31 -73.04,-34.54l-19.08 20.5c23.13,22.68 55.06,39.94 91.75,39.94 53.6,0 91.77,-33.46 91.77,-83.12 0,-48.22 -38.91,-77.37 -88.82,-77.37 -21.29,0 -35.6,4.68 -50.66,11.15l5.49 -80.6 122.6 0 0 -26.27 -147.91 0 -7.34 122.72zm343.93 -97.17l-81.13 89.61 5.87 16.92 16.53 0c42.57,0 71.95,17.27 71.95,48.94 0,29.87 -24.96,49.3 -56.16,49.3 -31.56,0 -55.42,-13.67 -75.25,-37.42l-20.91 18.36c20.91,26.62 52.86,44.97 95.8,44.97 47.71,0 85.88,-30.94 85.88,-76.29 0,-46.41 -39.64,-67.65 -84.78,-71.25l80.76 -87.82 0 -20.87 -164.08 0 0 25.55 125.53 0zm77.79 -6.11l6.99 23.03 48.44 -14.75 0 224.19 28.62 0 0 -253.7 -21.28 0 -62.78 21.23zm-5943.12 617.87l173.61 0 0 -26.27 -144.61 0 0 -225.63 -29 0 0 251.91zm404.86 -93.21c0,-52.9 -41.85,-96.79 -98.75,-96.79 -57.26,0 -99.11,44.62 -99.11,97.52 0,52.9 41.49,96.79 98.37,96.79 57.27,0 99.49,-44.62 99.49,-97.52zm-29 0.73c0,39.94 -28.64,71.96 -69.75,71.96 -40,0 -70.11,-32.38 -70.11,-72.69 0,-40.29 28.27,-72.33 69.37,-72.33 40.02,0 70.49,32.38 70.49,73.05zm113.04 -134.23l0 -30.59 -32.31 0 0 30.59 32.31 0zm-30.46 40.66l0 196.49c0,17.27 -8.82,24.83 -21.66,24.83 -4.05,0 -9.55,-0.36 -13.96,-1.08l0 22.68c6.24,1.43 11.02,1.79 17.63,1.79 28.62,0 46.24,-15.11 46.24,-47.86l0 -196.85 -28.26 0zm162.59 21.96c35.62,0 56.53,17.27 56.53,50.73l0 6.48c-16.89,-4.68 -34.13,-7.91 -58.36,-7.91 -48.08,0 -81.1,20.87 -81.1,60.45 0,38.87 35.59,58.31 70.84,58.31 33.4,0 55.41,-15.13 68.62,-32.03l0 28.07 27.16 0 0 -113.71c0,-48.95 -29,-74.86 -80.75,-74.86 -27.53,0 -48.09,6.12 -69,15.48l8.45 22.68c17.6,-7.91 35.22,-13.67 57.61,-13.67zm1.11 69.8c23.11,0 41.85,3.96 55.78,7.91l0 18c0,29.51 -28.62,50.38 -63.49,50.38 -25.69,0 -47.71,-13.67 -47.71,-37.42 0,-23.75 19.82,-38.87 55.42,-38.87zm409.4 -159.41l-145.35 173.45 7.34 20.52 135.43 0 0 59.73 27.91 0 0 -59.73 40 0 0 -23.75 -40 0 0 -170.21 -25.33 0zm-2.58 170.21l-107.9 0 107.9 -129.92 0 129.92zm292.32 129.55l0 -333.24 -23.86 0 0 333.24 23.86 0zm437.27 -86.01l-19.09 -18.35c-24.58,23.03 -47.71,36.34 -82.95,36.34 -56.53,0 -99.47,-45.7 -99.47,-104.37 0,-58.66 42.58,-103.63 99.47,-103.63 34.86,0 59.09,14.38 80.75,34.54l19.82 -20.87c-25.69,-23.75 -53.58,-39.94 -100.2,-39.94 -75.6,0 -129.93,58.66 -129.93,130.63 0,72.69 54.69,129.9 128.84,129.9 46.6,0 75.97,-17.63 102.77,-44.26zm78.9 -186.77l0 -30.59 -32.29 0 0 30.59 32.29 0zm-2.2 226.71l0 -186.05 -28.24 0 0 186.05 28.24 0zm246.3 0l0 -262.7 -28.26 0 0 112.28c-14.69,-20.87 -37.44,-39.58 -72.67,-39.58 -45.53,0 -90.66,35.98 -90.66,97.16 0,61.54 45.13,96.81 90.66,96.81 34.86,0 57.26,-19.08 72.67,-41.39l0 37.42 28.26 0zm-27.15 -93.21c0,43.54 -33.4,72.34 -68.65,72.34 -35.97,0 -66.79,-28.07 -66.79,-72.34 0,-45.34 30.09,-71.98 66.79,-71.98 35.25,0 68.65,28.8 68.65,71.98zm158.92 -70.88c35.62,0 56.53,17.27 56.53,50.73l0 6.48c-16.89,-4.68 -34.13,-7.91 -58.36,-7.91 -48.08,0 -81.1,20.87 -81.1,60.45 0,38.87 35.59,58.31 70.84,58.31 33.39,0 55.41,-15.13 68.62,-32.03l0 28.07 27.16 0 0 -113.71c0,-48.95 -29,-74.86 -80.75,-74.86 -27.53,0 -48.09,6.12 -69,15.48l8.45 22.68c17.6,-7.91 35.22,-13.67 57.61,-13.67zm1.11 69.8c23.11,0 41.84,3.96 55.78,7.91l0 18c0,29.51 -28.62,50.38 -63.49,50.38 -25.71,0 -47.71,-13.67 -47.71,-37.42 0,-23.75 19.82,-38.87 55.42,-38.87zm323.36 94.29l0 -262.7 -28.26 0 0 112.28c-14.67,-20.87 -37.44,-39.58 -72.67,-39.58 -45.51,0 -90.66,35.98 -90.66,97.16 0,61.54 45.15,96.81 90.66,96.81 34.87,0 57.27,-19.08 72.67,-41.39l0 37.42 28.26 0zm-27.15 -93.21c0,43.54 -33.4,72.34 -68.64,72.34 -35.98,0 -66.8,-28.07 -66.8,-72.34 0,-45.34 30.09,-71.98 66.8,-71.98 35.24,0 68.64,28.8 68.64,71.98zm107.18 10.43l150.48 0c0.36,-3.24 0.36,-6.11 0.36,-8.63 0,-54.71 -32.29,-98.6 -88.46,-98.6 -52.49,0 -91.04,43.18 -91.04,97.16 0,57.94 42.58,97.16 94.71,97.16 35.98,0 59.09,-14.03 78.17,-34.9l-17.6 -15.48c-15.42,15.84 -33.78,26.27 -59.84,26.27 -33.39,0 -62.77,-22.68 -66.79,-62.98zm0 -20.5c3.67,-36.34 28.62,-63.33 61.64,-63.33 37.82,0 57.64,29.51 60.58,63.33l-122.22 0zm518.02 103.28l0 -262.7 -28.26 0 0 112.28c-14.69,-20.87 -37.44,-39.58 -72.69,-39.58 -45.51,0 -90.64,35.98 -90.64,97.16 0,61.54 45.13,96.81 90.64,96.81 34.87,0 57.27,-19.08 72.69,-41.39l0 37.42 28.26 0zm-27.16 -93.21c0,43.54 -33.39,72.34 -68.64,72.34 -35.97,0 -66.79,-28.07 -66.79,-72.34 0,-45.34 30.09,-71.98 66.79,-71.98 35.25,0 68.64,28.8 68.64,71.98zm276.39 0c0,-52.9 -41.85,-96.79 -98.73,-96.79 -57.26,0 -99.11,44.62 -99.11,97.52 0,52.9 41.49,96.79 98.37,96.79 57.27,0 99.47,-44.62 99.47,-97.52zm-29 0.73c0,39.94 -28.62,71.96 -69.73,71.96 -40.02,0 -70.11,-32.38 -70.11,-72.69 0,-40.29 28.27,-72.33 69.37,-72.33 40.02,0 70.47,32.38 70.47,73.05zm210.32 40.29l0 -0.71c0,-33.47 -31.58,-44.62 -60.93,-53.26 -25.33,-7.55 -48.82,-14.38 -48.82,-32.02l0 -0.73c0,-15.48 14.33,-26.99 36.71,-26.99 18.35,0 38.53,6.83 56.15,18l12.84 -20.87c-19.44,-12.61 -45.13,-20.52 -68.26,-20.52 -37.44,0 -64.6,21.23 -64.6,53.26l0 0.71c0,34.19 33.04,44.26 62.77,52.54 24.96,6.85 47.35,14.03 47.35,32.76l0 0.71c0,18 -16.51,29.51 -39.27,29.51 -22.38,0 -45.15,-8.64 -65.69,-23.75l-14.31 19.79c21.28,16.92 51.38,27.35 78.53,27.35 37.82,0 67.55,-20.52 67.55,-55.78zm378.92 -199.72l-184.62 0 0 251.91 29 0 0 -109.76 139.11 0 0 -25.91 -139.11 0 0 -89.96 155.62 0 0 -26.27zm186.08 172.38c0,34.9 -24.58,58.29 -56.88,58.29 -33.4,0 -52.49,-21.6 -52.49,-56.13l0 -108.68 -28.27 0 0 115.52c0,44.26 26.8,74.5 72.69,74.5 32.66,0 52.11,-16.21 64.95,-36.34l0 32.38 27.89 0 0 -186.05 -27.89 0 0 106.53zm119.67 -26.99c0,-34.92 24.22,-58.31 56.89,-58.31 33.4,0 52.48,21.6 52.48,56.13l0 108.68 28.26 0 0 -115.52c0,-44.26 -26.78,-74.48 -72.66,-74.48 -32.67,0 -52.49,16.19 -64.97,36.34l0 -32.4 -28.26 0 0 186.05 28.26 0 0 -106.51zm360.81 74.85l-17.98 -16.55c-15.07,15.84 -33.78,27.7 -58,27.7 -39.64,0 -69.75,-32.02 -69.75,-72.69 0,-40.29 29.38,-72.33 67.91,-72.33 25.69,0 42.57,12.59 57.64,28.07l18.71 -19.44c-17.62,-18.35 -40.02,-33.09 -75.98,-33.09 -55.42,0 -97.27,44.62 -97.27,97.52 0,52.54 41.85,96.79 97.27,96.79 35.62,0 58.36,-15.11 77.45,-35.98zm79.64 -195.04l0 -30.59 -32.31 0 0 30.59 32.31 0zm-2.2 226.71l0 -186.05 -28.26 0 0 186.05 28.26 0zm251.8 -93.21c0,-52.9 -41.87,-96.79 -98.75,-96.79 -57.26,0 -99.11,44.62 -99.11,97.52 0,52.9 41.49,96.79 98.37,96.79 57.27,0 99.49,-44.62 99.49,-97.52zm-29 0.73c0,39.94 -28.64,71.96 -69.75,71.96 -40.02,0 -70.11,-32.38 -70.11,-72.69 0,-40.29 28.27,-72.33 69.37,-72.33 40.02,0 70.49,32.38 70.49,73.05zm108.26 -14.03c0,-34.92 24.23,-58.31 56.89,-58.31 33.4,0 52.49,21.6 52.49,56.13l0 108.68 28.26 0 0 -115.52c0,-44.26 -26.78,-74.48 -72.67,-74.48 -32.67,0 -52.48,16.19 -64.97,36.34l0 -32.4 -28.26 0 0 186.05 28.26 0 0 -106.51zm266.48 -57.58c35.6,0 56.53,17.27 56.53,50.73l0 6.48c-16.89,-4.68 -34.13,-7.91 -58.36,-7.91 -48.08,0 -81.11,20.87 -81.11,60.45 0,38.87 35.6,58.31 70.84,58.31 33.4,0 55.42,-15.13 68.64,-32.03l0 28.07 27.16 0 0 -113.71c0,-48.95 -29,-74.86 -80.75,-74.86 -27.53,0 -48.09,6.12 -69,15.48l8.44 22.68c17.62,-7.91 35.24,-13.67 57.62,-13.67zm1.11 69.8c23.11,0 41.84,3.96 55.78,7.91l0 18c0,29.51 -28.62,50.38 -63.49,50.38 -25.71,0 -47.71,-13.67 -47.71,-37.42 0,-23.75 19.8,-38.87 55.42,-38.87zm12.47 -119.83l41.49 -38.87 -29.38 -13.32 -34.87 52.19 22.76 0zm158.57 139.99c0,-56.13 33.77,-85.28 75.24,-85.28l2.22 0 0 -29.87c-35.98,-1.44 -63.52,20.87 -77.45,51.82l0 -48.59 -28.26 0 0 186.05 28.26 0 0 -74.13zm153.42 -152.58l0 -30.59 -32.31 0 0 30.59 32.31 0zm-2.2 226.71l0 -186.05 -28.26 0 0 186.05 28.26 0zm251.8 -93.21c0,-52.9 -41.87,-96.79 -98.75,-96.79 -57.26,0 -99.11,44.62 -99.11,97.52 0,52.9 41.49,96.79 98.37,96.79 57.27,0 99.49,-44.62 99.49,-97.52zm-29 0.73c0,39.94 -28.64,71.96 -69.75,71.96 -40.02,0 -70.11,-32.38 -70.11,-72.69 0,-40.29 28.27,-72.33 69.37,-72.33 40.02,0 70.49,32.38 70.49,73.05zm210.3 40.29l0 -0.71c0,-33.47 -31.56,-44.62 -60.93,-53.26 -25.33,-7.55 -48.8,-14.38 -48.8,-32.02l0 -0.73c0,-15.48 14.31,-26.99 36.69,-26.99 18.35,0 38.55,6.83 56.15,18l12.84 -20.87c-19.44,-12.61 -45.13,-20.52 -68.26,-20.52 -37.42,0 -64.6,21.23 -64.6,53.26l0 0.71c0,34.19 33.04,44.26 62.77,52.54 24.96,6.85 47.35,14.03 47.35,32.76l0 0.71c0,18 -16.51,29.51 -39.27,29.51 -22.38,0 -45.13,-8.64 -65.69,-23.75l-14.31 19.79c21.28,16.92 51.38,27.35 78.53,27.35 37.82,0 67.55,-20.52 67.55,-55.78z"/>
  <g id="_1961209597824">
   <path class="fil2" d="M196.7 1668.1c66.87,0 122.08,53.58 122.08,120.82 0,58.63 -40.34,124.73 -80.22,165.64 -8.8,9.05 -17.25,18.45 -25.52,27.99l-16.96 19.59 -16.22 -20.15c-7.52,-9.36 -15.33,-18.52 -23.54,-27.29 -37.19,-39.78 -81.7,-109.84 -81.7,-165.77 0,-67.24 55.19,-120.82 122.08,-120.82zm0 299.57c8.36,-9.69 17.12,-19.38 26.04,-28.53 35.51,-36.43 73.94,-97.7 73.94,-150.22 0,-55.03 -45.26,-98.73 -99.98,-98.73 -54.72,0 -99.98,43.7 -99.98,98.73 0,49.68 42.79,115.43 75.74,150.68 8.32,8.89 16.61,18.54 24.25,28.07z"/>
   <path class="fil2" d="M196.7 1744.91c25.02,0 45.29,20.27 45.29,45.29 0,25.02 -20.27,45.31 -45.29,45.31 -25.02,0 -45.31,-20.29 -45.31,-45.31 0,-25.02 20.29,-45.29 45.31,-45.29z"/>
  </g>
  <path class="fil2" d="M8135.14 1115.39l-90.1 29.36 29.55 -87.36c-14.98,-25.04 -22.78,-53.8 -22.86,-82.96 -0.28,-89.48 72.03,-161.8 161.45,-161.8 89.22,0 161.82,72.12 161.82,161.42 0,89.32 -72.6,161.44 -161.82,161.44 -27.35,0 -54.07,-6.97 -78.04,-20.1zm-46.69 -13.17l50.92 -16.13 0.32 0.22c21.98,14.62 47.46,22.22 73.86,22.22 74.1,0 134.3,-60.39 134.3,-134.48 0,-74.35 -60.46,-134.11 -134.67,-134.11 -74.07,0 -134.3,60.01 -134.3,134.11 0,28.55 8.85,55.71 25.69,78.72l0.26 0.35 -16.38 49.1zm161.93 -107.37c2.74,-3.95 5.64,-3.77 9.72,-2.13 8.98,3.61 18.1,8.79 27.05,12.88 2.05,1.12 6.56,3.16 7.96,5.07 2.22,3.7 -0.48,15.23 -1.75,19.03 -3.07,8.61 -18.46,18.36 -27.28,19.25 -0.98,0.1 -1.91,0.29 -2.86,0.52 -12.88,3.1 -33.28,-5.92 -44.88,-10.48 -29.66,-11.67 -49.87,-34.48 -67.75,-59.69 -8.48,-11.96 -16.19,-26.14 -16.19,-41.18 0,-14.67 4.66,-23.16 14.09,-33.59 2.83,-2.84 7.07,-5.01 11.15,-5.01 2.55,0 5.1,0.36 7.64,0.36 5.61,0 7.23,1.6 9.52,7.11 1.79,4.33 3.53,8.69 5.26,13.04 1.72,4.27 4.49,12.46 6.73,16.25 1.31,2.62 1.89,5.01 0.35,7.74 -1.36,2.38 -2.32,4.58 -4.09,6.72 -1.92,2.32 -3.76,4.9 -5.93,7.08 -2.51,2.1 -3.32,3.91 -1.65,7.01 5.8,9.73 13.2,19.44 21.7,26.93 10.8,9.53 18.86,13.52 31.51,19.31 2.86,1.44 5.2,1.68 7.37,-0.89 3.98,-4.68 9.09,-10.2 12.34,-15.35z"/>
  <path class="fil1 str0" d="M750.41 3451.23l-17.98 -16.55c-15.05,15.84 -33.77,27.7 -58,27.7 -39.64,0 -69.73,-32.02 -69.73,-72.69 0,-40.29 29.36,-72.33 67.91,-72.33 25.68,0 42.57,12.59 57.62,28.07l18.71 -19.44c-17.6,-18.35 -40,-33.09 -75.98,-33.09 -55.41,0 -97.26,44.62 -97.26,97.52 0,52.54 41.85,96.79 97.26,96.79 35.62,0 58.38,-15.11 77.45,-35.98zm74.88 -74.85c0,-34.92 24.22,-58.31 56.89,-58.31 33.4,0 52.49,21.6 52.49,56.13l0 108.68 28.26 0 0 -115.52c0,-44.26 -26.78,-74.48 -72.67,-74.48 -32.67,0 -52.48,16.19 -64.97,36.34l0 -32.4 -28.26 0 0 186.05 28.26 0 0 -106.51zm378.43 74.13l0 -153.67 -28.26 0 0 33.47c-15.42,-20.15 -38.55,-37.42 -74.15,-37.42 -45.15,0 -89.19,33.46 -89.19,88.17 0,54.33 43.66,87.44 89.19,87.44 34.86,0 57.99,-17.63 74.5,-39.22l0 21.95c0,43.54 -27.15,66.22 -68.99,66.22 -27.16,0 -51.38,-8.28 -73.04,-23.75l-12.85 21.58c25.31,17.28 54.69,25.91 86.26,25.91 58.36,0 96.53,-30.59 96.53,-90.67zm-27.16 -69.82c0,38.14 -33.77,63.33 -69.73,63.33 -35.25,0 -65.69,-25.55 -65.69,-63.7 0,-38.87 29.71,-62.97 65.69,-62.97 35.97,0 69.73,24.83 69.73,63.33zm118.55 28.07c0,-56.13 33.78,-85.28 75.24,-85.28l2.22 0 0 -29.87c-35.97,-1.44 -63.51,20.87 -77.45,51.82l0 -48.59 -28.26 0 0 186.05 28.26 0 0 -74.13zm179.86 -89.96c35.62,0 56.53,17.27 56.53,50.73l0 6.48c-16.89,-4.68 -34.13,-7.91 -58.36,-7.91 -48.08,0 -81.11,20.87 -81.11,60.45 0,38.87 35.6,58.31 70.85,58.31 33.39,0 55.41,-15.13 68.62,-32.03l0 28.07 27.16 0 0 -113.71c0,-48.95 -29,-74.86 -80.75,-74.86 -27.53,0 -48.09,6.12 -69,15.48l8.44 22.68c17.62,-7.91 35.24,-13.67 57.62,-13.67zm1.11 69.8c23.11,0 41.84,3.96 55.78,7.91l0 18c0,29.51 -28.62,50.38 -63.49,50.38 -25.71,0 -47.71,-13.67 -47.71,-37.42 0,-23.75 19.8,-38.87 55.42,-38.87zm310.52 -132.42l0 -30.59 -32.29 0 0 30.59 32.29 0zm-129.19 41.39l0 -15.13c0,-26.62 10.99,-39.58 33.02,-39.58 9.55,0 17.25,1.81 27.53,4.68l0 -24.1c-9.17,-3.25 -17.98,-4.68 -31.2,-4.68 -36.34,0 -57.26,21.58 -57.26,62.26l0 16.19 -26.06 0 0 24.1 26.06 0 0 161.58 28.26 0 0 -161.58 59.82 0 0 -23.74 -60.17 0zm126.99 185.32l0 -186.05 -27.89 0 0 186.05 27.89 0zm229.03 -31.67l-17.98 -16.55c-15.05,15.84 -33.77,27.7 -58,27.7 -39.64,0 -69.73,-32.02 -69.73,-72.69 0,-40.29 29.36,-72.33 67.91,-72.33 25.68,0 42.57,12.59 57.62,28.07l18.71 -19.44c-17.6,-18.35 -40,-33.09 -75.98,-33.09 -55.41,0 -97.26,44.62 -97.26,97.52 0,52.54 41.85,96.79 97.26,96.79 35.62,0 58.38,-15.11 77.45,-35.98zm115.24 -132.42c35.62,0 56.53,17.27 56.53,50.73l0 6.48c-16.89,-4.68 -34.13,-7.91 -58.35,-7.91 -48.09,0 -81.11,20.87 -81.11,60.45 0,38.87 35.6,58.31 70.84,58.31 33.4,0 55.41,-15.13 68.62,-32.03l0 28.07 27.16 0 0 -113.71c0,-48.95 -29,-74.86 -80.75,-74.86 -27.53,0 -48.09,6.12 -69,15.48l8.45 22.68c17.6,-7.91 35.22,-13.67 57.61,-13.67zm1.12 69.8c23.11,0 41.84,3.96 55.77,7.91l0 18c0,29.51 -28.62,50.38 -63.49,50.38 -25.69,0 -47.71,-13.67 -47.71,-37.42 0,-23.75 19.82,-38.87 55.44,-38.87zm173.23 94.29l0 -37.79 -33.77 0 0 37.79 33.77 0zm215.1 -31.67l-17.98 -16.55c-15.07,15.84 -33.78,27.7 -58,27.7 -39.64,0 -69.75,-32.02 -69.75,-72.69 0,-40.29 29.38,-72.33 67.91,-72.33 25.69,0 42.57,12.59 57.64,28.07l18.71 -19.44c-17.62,-18.35 -40.02,-33.09 -75.98,-33.09 -55.42,0 -97.27,44.62 -97.27,97.52 0,52.54 41.85,96.79 97.27,96.79 35.62,0 58.36,-15.11 77.45,-35.98zm227.21 -61.54c0,-52.9 -41.87,-96.79 -98.75,-96.79 -57.26,0 -99.11,44.62 -99.11,97.52 0,52.9 41.49,96.79 98.37,96.79 57.27,0 99.49,-44.62 99.49,-97.52zm-29 0.73c0,39.94 -28.64,71.96 -69.75,71.96 -40.02,0 -70.11,-32.38 -70.11,-72.69 0,-40.29 28.27,-72.33 69.37,-72.33 40.02,0 70.49,32.38 70.49,73.05zm230.48 -60.46c-10.27,-20.87 -30.09,-37.06 -60.93,-37.06 -31.93,0 -48.8,16.9 -61.29,35.27l0 -31.32 -28.26 0 0 186.05 28.26 0 0 -106.16c0,-34.19 22.76,-58.66 52.86,-58.66 30.09,0 48.8,20.52 48.8,55.42l0 109.4 27.91 0 0 -107.24c0,-36.71 23.86,-57.58 52.48,-57.58 30.85,0 49.18,20.15 49.18,56.13l0 108.68 28.27 0 0 -115.15c0,-46.06 -26.8,-74.85 -70.46,-74.85 -33.05,0 -53.23,16.54 -66.82,37.06zm229.03 152.94l0 -37.79 -33.77 0 0 37.79 33.77 0zm251.06 -93.21c0,-61.53 -45.13,-96.79 -90.64,-96.79 -34.87,0 -57.27,19.06 -72.69,41.37l0 -114.08 -28.26 0 0 262.7 28.26 0 0 -35.63c14.69,20.88 37.44,39.59 72.69,39.59 45.86,0 90.64,-35.99 90.64,-97.17zm-29 0.36c0,45.34 -30.09,71.98 -66.79,71.98 -35.25,0 -68.64,-28.8 -68.64,-72.34 0,-43.18 33.39,-71.98 68.64,-71.98 35.97,0 66.79,28.08 66.79,72.34zm109.38 18.71c0,-56.13 33.78,-85.28 75.24,-85.28l2.22 0 0 -29.87c-35.97,-1.44 -63.51,20.87 -77.45,51.82l0 -48.59 -28.26 0 0 186.05 28.26 0 0 -74.13z"/>
  <path class="fil2" d="M305.68 3384.92l-29.42 0c-2.86,0 -6.38,-4.2 -8.47,-6.02 -2.08,-1.84 -3.86,-3.93 -5.89,-5.8 -4.37,-4.05 -4.49,-2.38 -5.17,-9.49 -0.34,-3.48 -0.2,-7.1 -0.79,-10.58l-1.54 -10.03c-1.41,-9.27 -4.05,-16.53 -6.22,-25.08l-51.09 0 0 48 30.36 0 0 18.99 -30.36 0 0 47.99 30.36 0 0 19 -30.36 0 0 40.85c6.3,-1.4 14.86,-6.11 18.89,-9.4 2.03,-1.66 4.94,-4.85 7.4,-5.52l4.07 -1.08 0 30.38 -2.49 0.58c-13.92,3.24 -23.26,5.39 -37.85,5.39 -20.27,0 -44.86,-5.74 -62.65,-15.43 -4.07,-2.23 -8.48,-4.43 -12.23,-7.16l-11.21 -8.16c-0.68,-0.52 -1.34,-1.03 -2.08,-1.68l-4.66 -4.24c-3.67,-2.84 -10.06,-9.63 -12.84,-13.39 -0.85,-1.15 -1.76,-2.19 -2.86,-3.53l-7.84 -11.29c-3.26,-5.52 -6.32,-10.81 -8.87,-16.74 -16.03,-37.23 -16.63,-79.49 1.72,-116 4.97,-9.89 10.93,-19.79 18.26,-28.33l11.85 -12.53 13.19 -10.92c0.32,-0.25 0.64,-0.45 0.98,-0.68 1.24,-0.85 2.51,-1.63 3.75,-2.49 2.61,-1.79 5.29,-3.35 8.06,-4.9 44.21,-24.73 93.02,-23.77 137.12,0.66 1.41,0.77 2.62,1.72 4.02,2.61l7.53 5c1.34,0.89 2.49,1.91 3.8,2.96l7.8 6.53 20.39 23.14 0.13 0.19c5,7.51 10.55,16.67 13.93,25.02 1.24,3.07 2.39,6.18 3.44,9.34 9.08,27.18 10.14,55.97 1.59,83.43 -0.51,1.66 -0.93,3.66 -1.68,5.2l-1.63 3.37 -3.09 -2.1c-2.33,-1.56 -11.54,-9.78 -11.54,-12.31 0,-3.12 2.94,-13.76 3.54,-17.91 0.29,-1.91 0.52,-3.88 0.67,-5.84zm-177.63 -112.11c-0.54,0.31 -1.06,0.61 -1.59,0.93l-12.62 8.73c-6.56,5.36 -10.55,10.01 -16.38,15.84 -0.16,0.15 -0.36,0.36 -0.6,0.63l16.54 0c1.15,-3.12 3.06,-6.79 4.42,-9.5l8.71 -14.72 1.52 -1.91zm118.45 -0.32c5.23,7.2 9.91,15.16 13.44,23.07 0.5,1.12 0.96,2.26 1.47,3.38l16.79 0c-1.75,-1.95 -3.72,-3.98 -4.63,-5.09 -4.18,-5 -13.28,-12.43 -18.76,-16.07 -1.49,-0.99 -4.78,-3.15 -8.31,-5.29zm-68.4 -14.5c-1.87,0.42 -3.75,0.9 -5.35,1.6 -9.63,4.2 -13.82,7.02 -21.29,14.6 -3.86,3.92 -7.56,9.02 -10.62,13.58 -0.44,0.64 -0.87,1.25 -1.28,1.91 -0.36,0.58 -0.6,1.14 -0.93,1.73 -0.71,1.33 -1.6,2.51 -2.29,3.85 -0.36,0.73 -1.19,2.2 -1.94,3.67l43.7 0 0 -40.95zm18.99 0.32l0 40.63 43.63 0c-0.64,-1.19 -1.36,-2.35 -2.01,-3.53l-12.56 -18.33c-3.25,-3.5 -5.19,-5.74 -8.98,-8.93 -4.52,-3.82 -9.62,-6.65 -15.2,-8.55 -1.31,-0.44 -3.12,-0.85 -4.88,-1.28zm71.35 59.62c4.04,12.43 7.11,35.57 7.62,48l29.66 0c-0.47,-8.25 -2.56,-18.51 -4.98,-25.69 -1.52,-4.5 -2.78,-8.26 -4.71,-12.56l-4.88 -9.75 -22.7 0zm-169.28 48c0.34,-3.38 0.23,-9.04 0.42,-11.45 0.17,-2.43 0.76,-4.82 0.95,-7.26 0.82,-10.26 3.83,-19.54 6.31,-29.29l-23.01 0c-1.89,3.16 -3.34,6.63 -4.88,9.94 -1.91,4.11 -3.32,8.29 -4.74,12.59 -2.67,8.18 -4.14,16.88 -5,25.47l29.95 0zm27.51 -48c-0.01,0.04 -0.03,0.09 -0.04,0.12l-2.7 9.22c-3.21,12.87 -5.51,25.44 -5.84,38.66l60.01 0 0 -48 -51.43 0zm-19.85 114.98c-1.46,-5.49 -3.16,-10.9 -4.23,-16.64l-2.54 -16.77c-0.29,-1.89 -0.48,-3.22 -0.51,-5.19 -0.03,-1.59 0,-6.63 -0.29,-9.43 -0.74,0.01 -1.52,0.04 -2.27,0.04l-27.53 0c0.19,1.63 0.31,3.29 0.39,4.77 0.15,2.45 0.6,4.79 1.05,7.18 2.03,10.9 5.86,22.33 10.94,32.1l2.13 3.93 22.85 0zm19.85 0l51.43 0 0 -47.99 -60.03 0c0.22,12.65 2.8,26.95 5.97,39 0.45,1.73 1.59,6.89 2.62,8.99zm2.19 45.34l-5.3 -6.88 -0.09 -0.16c-1.02,-1.72 -2.08,-3.41 -3.09,-5.13 -1.87,-3.18 -5.28,-9.68 -6.95,-14.16l-16.45 0c0.31,0.36 0.58,0.68 0.77,0.9l11.08 11.06c5.6,5.71 13.09,10.22 20.04,14.37zm5.63 -26.33c3.76,8.23 11.28,18.57 17.05,24.82 4.56,4.95 14.75,12.12 21.09,14.33 1.66,0.58 3.58,1.27 5.48,1.71l0 -40.85 -43.62 0zm176.19 25.05l8.45 18.67c0.71,1.59 1.47,3.15 2.14,4.78 1.37,3.4 4.02,7.16 4.02,10.92 0,7.26 -7.78,9.05 -12.9,11.57 -14.79,7.3 -24.19,15.64 -31.78,-3.1l-10.49 -23.3c-3.98,3.53 -10.07,10.33 -12.65,12.9 -2.54,2.55 -4.68,5.17 -8.67,5.17 -5.1,0 -9.97,-4.3 -9.97,-9.5l0 -116.63c0,-2.4 0.85,-5.36 2.45,-7.2 8.35,-9.62 16.66,3.03 22.24,7.33 2.2,1.72 3.85,3.69 5.89,5.51 0.26,0.23 0.52,0.44 0.85,0.73l45.29 42.55c0.87,0.87 1.71,1.84 2.87,2.77l14.22 13.38c4.07,4.02 10.96,7.97 10.96,14.46 0,10.17 -11.03,9.01 -17.68,9.01 -5.09,0 -10.16,0 -15.24,0zm-1.17 -19.13l-1.81 -1.73c-5.51,-4.71 -10.32,-10.32 -15.94,-15.04l-33.94 -31.68 0 72.89c4.56,-4.94 9.69,-11.28 14.6,-11.28 7.74,0 8.85,4.23 11.56,10.13l9.33 20.42c1.25,2.45 2.22,5.01 3.32,7.51l6.21 -2.73 -7.46 -16.55c-1.54,-3.19 -2.87,-6.47 -4.36,-9.68 -2.14,-4.59 -4.49,-7.8 -4.49,-13.09 0,-3.47 2.51,-6.56 5.58,-7.94 2.81,-1.28 10.77,-1.33 17.4,-1.22z"/>
  <g id="_1961209599648">
   <path class="fil2" d="M256.19 1034.34c4.61,-6.6 9.43,-6.31 16.26,-3.56 15,6.03 30.25,14.67 45.22,21.52 3.42,1.89 10.96,5.3 13.31,8.48 3.7,6.19 -0.82,25.47 -2.93,31.83 -5.14,14.38 -30.88,30.69 -45.61,32.18 -1.63,0.16 -3.19,0.5 -4.78,0.87 -21.52,5.19 -55.64,-9.88 -75.04,-17.52 -49.59,-19.51 -83.37,-57.65 -113.27,-99.81 -14.18,-19.98 -27.05,-43.7 -27.05,-68.84 0,-24.54 7.8,-38.71 23.54,-56.15 4.72,-4.75 11.83,-8.38 18.64,-8.38 4.28,0 8.54,0.61 12.79,0.61 9.37,0 12.05,2.68 15.88,11.89 3.02,7.23 5.9,14.51 8.8,21.79 2.87,7.14 7.51,20.85 11.25,27.16 2.2,4.4 3.16,8.39 0.58,12.96 -2.26,3.98 -3.88,7.65 -6.83,11.22 -3.22,3.89 -6.3,8.19 -9.92,11.83 -4.2,3.53 -5.55,6.53 -2.74,11.73 9.69,16.26 22.08,32.5 36.26,45.03 18.07,15.93 31.54,22.6 52.68,32.29 4.78,2.39 8.69,2.77 12.34,-1.52 6.65,-7.8 15.2,-17.05 20.62,-25.63z"/>
   <path class="fil1" d="M188.34 918.19c-8.64,0 -15.65,-7.01 -15.65,-15.65 0,-8.66 7.01,-15.65 15.65,-15.65 29.51,0 56.24,11.96 75.57,31.3 19.32,19.32 31.3,46.05 31.3,75.56 0,8.64 -7.01,15.65 -15.67,15.65 -8.64,0 -15.65,-7.01 -15.65,-15.65 0,-20.87 -8.45,-39.75 -22.12,-53.44 -13.68,-13.67 -32.57,-22.12 -53.44,-22.12z"/>
   <path class="fil1" d="M188.34 861.96c-8.64,0 -15.65,-7.01 -15.65,-15.65 0,-8.64 7.01,-15.65 15.65,-15.65 45.04,0 85.82,18.26 115.33,47.77 29.52,29.51 47.77,70.3 47.77,115.33 0,8.64 -7.01,15.65 -15.65,15.65 -8.64,0 -15.65,-7.01 -15.65,-15.65 0,-36.39 -14.75,-69.35 -38.6,-93.19 -23.84,-23.84 -56.79,-38.6 -93.19,-38.6z"/>
  </g>
 </g>
</svg>
