<?xml version="1.0" encoding="UTF-8"?>
<!DOCTYPE svg PUBLIC "-//W3C//DTD SVG 1.1//EN" "http://www.w3.org/Graphics/SVG/1.1/DTD/svg11.dtd">
<!-- Creator: CorelDRAW 2020 (64 Bit) -->
<svg xmlns="http://www.w3.org/2000/svg" xml:space="preserve" width="32.974mm" height="27.0636mm" version="1.1" style="shape-rendering:geometricPrecision; text-rendering:geometricPrecision; image-rendering:optimizeQuality; fill-rule:evenodd; clip-rule:evenodd"
viewBox="0 0 916.45 752.18"
 xmlns:xlink="http://www.w3.org/1999/xlink"
 xmlns:xodm="http://www.corel.com/coreldraw/odm/2003">
 <defs>
  <style type="text/css">
   <![CDATA[
    .fil0 {fill:#FEFEFE;fill-rule:nonzero}
   ]]>
  </style>
 </defs>
 <g id="Camada_x0020_1">
  <metadata id="CorelCorpID_0Corel-Layer"/>
  <g id="_1961412855440">
   <g>
    <path class="fil0" d="M85.51 637.46c-6.1,2.93 -15.49,4.8 -24.71,4.76 -28.51,-0.13 -44.93,-18.63 -44.8,-47.31 0.14,-30.77 18.47,-48.24 45.94,-48.11 9.73,0.04 17.89,2.17 23.62,4.97l3.7 -12.33c-3.99,-2.1 -13.19,-5.27 -27.78,-5.34 -36.33,-0.17 -61.3,24.57 -61.47,61.25 -0.18,38.42 24.59,59.39 57.61,59.54 14.26,0.06 25.39,-2.67 30.96,-5.42l-3.07 -12.01zm39.73 16l0.23 -50.06c0.09,-19.47 -0.19,-33.55 -0.99,-48.33l0.52 -0.17c5.85,12.72 13.61,26.14 21.72,39.21l36.93 59.62 15.29 0.07 0.54 -117.15 -14.25 -0.06 -0.23 49.02c-0.08,18.25 0.2,32.5 1.52,48.15l-0.35 0.17c-5.51,-12.02 -12.23,-24.39 -20.86,-38.16l-37.27 -59.44 -16.51 -0.08 -0.54 117.15 14.25 0.06zm229.89 -60.48l-38.59 -0.18 -0.06 12.17 23.81 0.11 -0.16 34.94c-3.49,1.72 -10.27,3.08 -20.18,3.04 -27.29,-0.13 -45.11,-17.77 -44.98,-47.49 0.14,-29.37 18.82,-47.02 47.32,-46.89 11.82,0.06 19.63,2.35 25.88,5.16l3.7 -12.32c-5.03,-2.46 -15.62,-5.46 -29.17,-5.52 -39.29,-0.18 -63.39,25.26 -63.72,60.2 -0.08,18.25 6.1,33.92 16.14,43.7 11.42,11 26,15.59 43.73,15.67 15.82,0.07 29.22,-3.87 36.01,-6.27l0.26 -56.32zm26.31 61.65l15.12 0.07 0.23 -50.76 14.25 0.07c13.73,0.58 19.96,6.7 23.36,22.88 3.24,14.62 5.8,24.71 7.69,28.02l15.64 0.07c-2.41,-4.53 -5.14,-15.84 -8.89,-32.2 -2.73,-12.18 -8.07,-20.55 -17.1,-23.72l0 -0.52c12.36,-4.12 22.14,-14.33 22.21,-29.8 0.04,-9.04 -3.22,-17.05 -9.11,-22.29 -7.27,-6.64 -17.69,-9.64 -33.85,-9.72 -10.43,-0.05 -21.38,0.77 -29.04,2.3l-0.53 115.59zm15.61 -104.92c2.44,-0.68 7.65,-1.35 14.95,-1.32 15.99,0.24 26.91,6.9 26.84,22.02 -0.06,13.38 -10.36,22.2 -26.52,22.13l-15.47 -0.07 0.2 -42.76zm142.91 68.8l12.35 36.9 16.16 0.08 -39.44 -117.34 -18.25 -0.08 -40.34 116.97 15.64 0.07 12.34 -36.79 41.54 0.19zm-38.36 -12l11.63 -33.84c2.29,-7.12 4.24,-14.24 6.01,-21.18l0.35 0c1.71,6.78 3.41,13.74 5.99,21.41l11.31 33.77 -35.28 -0.16zm25.64 -94.96l-16.26 20.26 12.52 0.06 22.16 -20.24 -18.42 -0.09zm61.91 144.03l15.12 0.07 0.24 -53.02 44.32 0.2 0.06 -12.52 -44.32 -0.2 0.18 -38.94 47.97 0.22 0.06 -12.69 -63.1 -0.29 -0.54 117.15zm88.66 -116.75l-0.54 117.15 15.12 0.07 0.54 -117.15 -15.12 -0.07zm123.29 101.9c-6.1,2.93 -15.49,4.79 -24.71,4.75 -28.51,-0.13 -44.93,-18.63 -44.8,-47.31 0.14,-30.77 18.47,-48.24 45.94,-48.11 9.73,0.04 17.89,2.17 23.62,4.97l3.7 -12.32c-3.99,-2.1 -13.19,-5.28 -27.78,-5.34 -36.33,-0.17 -61.3,24.57 -61.47,61.25 -0.18,38.42 24.59,59.39 57.61,59.54 14.26,0.06 25.39,-2.66 30.97,-5.42l-3.07 -12.01zm86.83 -20.63l12.35 36.9 16.16 0.08 -39.44 -117.33 -18.25 -0.09 -40.34 116.97 15.64 0.07 12.34 -36.79 41.54 0.19zm-38.36 -12l11.63 -33.84c2.29,-7.12 4.24,-14.24 6.01,-21.18l0.35 0c1.71,6.79 3.41,13.75 5.99,21.41l11.31 33.77 -35.28 -0.16z"/>
    <g>
     <path class="fil0" d="M687.9 2.46l-535.86 -2.46 -1.11 241.09 245.9 1.13 0.65 -141.19 234.57 1.08 -0.65 141.19 55.4 0.26c0,0 78.34,-32.23 78.78,-127.79 0.44,-95.57 -77.67,-113.3 -77.67,-113.3zm-310.36 78.94l0 0c2.83,-11.93 29.96,-34.62 29.96,-34.62l212.85 0.98c24.9,20.75 31.34,34.9 31.34,34.9l-274.15 -1.26z"/>
     <polygon class="fil0" points="407.19,114.12 620.04,115.09 618.99,344.24 405.62,456.21 "/>
     <polygon class="fil0" points="401.59,456.19 401.97,373.66 358.49,379.97 "/>
    </g>
   </g>
   <path class="fil0" d="M115.54 685.88l0 20.85 -0.14 0c-1.59,-2.81 -5.19,-5.34 -10.53,-5.34 -8.51,0 -15.73,7.14 -15.66,18.76 0,10.61 6.49,17.75 14.93,17.75 5.7,0 9.96,-2.96 11.9,-6.85l0.14 0 0.29 6.06 5.7 0c-0.22,-2.38 -0.29,-5.91 -0.29,-9.02l0 -42.2 -6.35 0zm0 36.58c0,1.01 -0.07,1.88 -0.29,2.74 -1.15,4.76 -5.05,7.58 -9.31,7.58 -6.85,0 -10.31,-5.84 -10.31,-12.92 0,-7.72 3.89,-13.49 10.46,-13.49 4.76,0 8.22,3.32 9.16,7.36 0.22,0.79 0.29,1.88 0.29,2.67l0 6.06zm25.18 14.64l0 -34.92 -6.35 0 0 34.92 6.35 0zm-3.17 -48.7c-2.31,0 -3.97,1.73 -3.97,3.97 0,2.16 1.59,3.89 3.82,3.89 2.53,0 4.11,-1.73 4.04,-3.89 0,-2.24 -1.51,-3.97 -3.9,-3.97zm40.18 13.78l-0.29 5.27 -0.14 0c-1.51,-2.89 -4.83,-6.06 -10.89,-6.06 -8.01,0 -15.73,6.71 -15.73,18.54 0,9.67 6.21,17.03 14.86,17.03 5.41,0 9.16,-2.6 11.11,-5.84l0.14 0 0 3.89c0,8.8 -4.76,12.19 -11.25,12.19 -4.33,0 -7.94,-1.3 -10.24,-2.74l-1.59 4.83c2.81,1.88 7.43,2.88 11.61,2.88 4.4,0 9.31,-1.01 12.7,-4.18 3.39,-3.03 4.98,-7.94 4.98,-15.94l0 -20.27c0,-4.26 0.14,-7.07 0.29,-9.59l-5.56 0zm-1.01 20.06c0,1.08 -0.14,2.31 -0.51,3.39 -1.37,4.04 -4.91,6.49 -8.8,6.49 -6.85,0 -10.31,-5.7 -10.31,-12.55 0,-8.08 4.33,-13.2 10.39,-13.2 4.62,0 7.72,3.03 8.87,6.71 0.29,0.87 0.36,1.8 0.36,2.89l0 6.28zm24.67 14.86l0 -34.92 -6.35 0 0 34.92 6.35 0zm-3.17 -48.7c-2.31,0 -3.97,1.73 -3.97,3.97 0,2.16 1.59,3.89 3.82,3.89 2.53,0 4.11,-1.73 4.04,-3.89 0,-2.24 -1.51,-3.97 -3.9,-3.97zm17.1 5.41l0 8.37 -5.41 0 0 4.83 5.41 0 0 19.05c0,4.11 0.65,7.21 2.45,9.09 1.51,1.73 3.89,2.67 6.85,2.67 2.45,0 4.4,-0.36 5.63,-0.87l-0.29 -4.76c-0.79,0.22 -2.02,0.43 -3.68,0.43 -3.53,0 -4.76,-2.45 -4.76,-6.78l0 -18.83 9.09 0 0 -4.83 -9.09 0 0 -10.03 -6.2 1.66zm49.49 43.28c-0.43,-2.38 -0.58,-5.34 -0.58,-8.37l0 -13.06c0,-7 -2.6,-14.29 -13.27,-14.29 -4.4,0 -8.59,1.23 -11.47,3.1l1.44 4.19c2.45,-1.59 5.84,-2.6 9.09,-2.6 7.14,0 7.93,5.19 7.93,8.08l0 0.72c-13.49,-0.07 -20.99,4.55 -20.99,12.99 0,5.05 3.61,10.03 10.68,10.03 4.98,0 8.73,-2.45 10.68,-5.19l0.22 0 0.5 4.4 5.77 0zm-6.71 -11.76c0,0.65 -0.14,1.37 -0.36,2.02 -1.01,2.96 -3.9,5.84 -8.44,5.84 -3.25,0 -5.99,-1.95 -5.99,-6.06 0,-6.78 7.86,-8.01 14.79,-7.86l0 6.06zm18.32 11.76l6.35 0 0 -51.22 -6.35 0 0 51.22zm39.17 -11.33c4.26,0 7.57,-3.32 7.57,-7.58 0,-4.18 -3.39,-7.5 -7.57,-7.5 -4.19,0 -7.65,3.32 -7.58,7.57 0,4.26 3.39,7.5 7.58,7.5zm47.47 -24.39c-9.67,0 -17.32,6.85 -17.32,18.54 0,11.04 7.29,17.97 16.74,17.97 8.44,0 17.39,-5.63 17.39,-18.54 0,-10.68 -6.78,-17.97 -16.81,-17.97zm-0.14 4.76c7.5,0 10.46,7.5 10.46,13.42 0,7.87 -4.54,13.56 -10.61,13.56 -6.2,0 -10.6,-5.77 -10.6,-13.42 0,-6.64 3.25,-13.56 10.75,-13.56zm54.83 30.95l0 -30.08 8.37 0 0 -4.83 -8.44 0 0 -1.88c0,-5.34 1.44,-10.1 6.78,-10.1 1.88,0 3.1,0.36 4.11,0.79l0.79 -4.91c-1.23,-0.5 -3.1,-1.01 -5.41,-1.01 -2.89,0 -6.06,0.94 -8.44,3.25 -2.96,2.81 -4.11,7.29 -4.11,12.19l0 1.66 -14.64 0 0 -1.51c0,-5.48 1.37,-9.74 6.35,-9.74 1.44,0 2.81,0.43 3.75,0.86l1.3 -4.69c-1.08,-0.58 -2.96,-1.23 -4.98,-1.23 -3.9,0 -6.78,1.23 -8.8,3.25 -2.74,2.74 -3.9,7 -3.9,11.9l0 1.15 -4.91 0 0 4.83 4.91 0 0 30.08 6.28 0 0 -30.08 14.64 0 0 30.08 6.35 0zm12.98 -1.66c2.45,1.44 5.99,2.38 9.81,2.38 8.3,0 13.06,-4.33 13.06,-10.46 0,-5.19 -3.1,-8.22 -9.16,-10.53 -4.54,-1.73 -6.64,-3.03 -6.64,-5.91 0,-2.6 2.09,-4.76 5.84,-4.76 3.25,0 5.77,1.16 7.14,2.02l1.59 -4.62c-1.95,-1.15 -5.05,-2.17 -8.58,-2.17 -7.5,0 -12.05,4.62 -12.05,10.24 0,4.19 2.96,7.65 9.23,9.88 4.69,1.73 6.49,3.39 6.49,6.42 0,2.89 -2.16,5.19 -6.78,5.19 -3.17,0 -6.49,-1.3 -8.37,-2.52l-1.59 4.83zm61.03 -14.64c0.07,-0.65 0.22,-1.66 0.22,-2.96 0,-6.42 -3.03,-16.45 -14.43,-16.45 -10.17,0 -16.38,8.3 -16.38,18.83 0,10.53 6.42,17.6 17.17,17.6 5.56,0 9.38,-1.16 11.61,-2.17l-1.08 -4.54c-2.38,1.01 -5.12,1.8 -9.67,1.8 -6.35,0 -11.83,-3.53 -11.98,-12.12l24.53 0zm-24.46 -4.55c0.5,-4.4 3.32,-10.31 9.74,-10.31 7.14,0 8.87,6.28 8.8,10.31l-18.54 0zm35.93 -22.43l0 8.37 -5.41 0 0 4.83 5.41 0 0 19.05c0,4.11 0.65,7.21 2.45,9.09 1.51,1.73 3.89,2.67 6.85,2.67 2.45,0 4.4,-0.36 5.63,-0.87l-0.29 -4.76c-0.79,0.22 -2.02,0.43 -3.68,0.43 -3.53,0 -4.76,-2.45 -4.76,-6.78l0 -18.83 9.09 0 0 -4.83 -9.09 0 0 -10.03 -6.2 1.66zm44.59 31.96c4.26,0 7.57,-3.32 7.57,-7.58 0,-4.18 -3.39,-7.5 -7.57,-7.5 -4.19,0 -7.65,3.32 -7.58,7.57 0,4.26 3.39,7.5 7.58,7.5zm57.79 11.33c-0.43,-2.38 -0.58,-5.34 -0.58,-8.37l0 -13.06c0,-7 -2.6,-14.29 -13.27,-14.29 -4.4,0 -8.59,1.23 -11.47,3.1l1.44 4.19c2.45,-1.59 5.84,-2.6 9.09,-2.6 7.14,0 7.93,5.19 7.93,8.08l0 0.72c-13.49,-0.07 -20.99,4.55 -20.99,12.99 0,5.05 3.61,10.03 10.68,10.03 4.98,0 8.73,-2.45 10.68,-5.19l0.22 0 0.5 4.4 5.77 0zm-6.71 -11.76c0,0.65 -0.14,1.37 -0.36,2.02 -1.01,2.96 -3.9,5.84 -8.44,5.84 -3.25,0 -5.99,-1.95 -5.99,-6.06 0,-6.78 7.86,-8.01 14.79,-7.86l0 6.06zm47.54 -23.16l-6.35 0 0 21.43c0,1.15 -0.22,2.31 -0.58,3.25 -1.16,2.81 -4.11,5.77 -8.37,5.77 -5.77,0 -7.79,-4.47 -7.79,-11.11l0 -19.33 -6.35 0 0 20.42c0,12.26 6.56,15.29 12.05,15.29 6.2,0 9.88,-3.68 11.54,-6.5l0.14 0 0.36 5.7 5.63 0c-0.22,-2.74 -0.29,-5.91 -0.29,-9.52l0 -25.39zm13.92 -8.37l0 8.37 -5.41 0 0 4.83 5.41 0 0 19.05c0,4.11 0.65,7.21 2.45,9.09 1.51,1.73 3.89,2.67 6.85,2.67 2.45,0 4.4,-0.36 5.63,-0.87l-0.29 -4.76c-0.79,0.22 -2.02,0.43 -3.68,0.43 -3.53,0 -4.76,-2.45 -4.76,-6.78l0 -18.83 9.09 0 0 -4.83 -9.09 0 0 -10.03 -6.2 1.66zm38.74 7.57c-9.67,0 -17.32,6.85 -17.32,18.54 0,11.04 7.29,17.97 16.74,17.97 8.44,0 17.39,-5.63 17.39,-18.54 0,-10.68 -6.78,-17.97 -16.81,-17.97zm-0.14 4.76c7.5,0 10.46,7.5 10.46,13.42 0,7.87 -4.54,13.56 -10.61,13.56 -6.2,0 -10.6,-5.77 -10.6,-13.42 0,-6.64 3.25,-13.56 10.75,-13.56zm50.72 24.89c-1.8,0.79 -4.19,1.73 -7.79,1.73 -6.93,0 -12.12,-4.98 -12.12,-13.06 0,-7.28 4.33,-13.2 12.33,-13.2 3.46,0 5.84,0.79 7.36,1.66l1.44 -4.91c-1.73,-0.86 -5.05,-1.8 -8.8,-1.8 -11.4,0 -18.76,7.79 -18.76,18.54 0,10.68 6.85,17.82 17.39,17.82 4.69,0 8.37,-1.16 10.03,-2.02l-1.08 -4.76zm35.57 6.06c-0.43,-2.38 -0.58,-5.34 -0.58,-8.37l0 -13.06c0,-7 -2.6,-14.29 -13.28,-14.29 -4.4,0 -8.59,1.23 -11.47,3.1l1.44 4.19c2.45,-1.59 5.84,-2.6 9.09,-2.6 7.14,0 7.94,5.19 7.94,8.08l0 0.72c-13.49,-0.07 -21,4.55 -21,12.99 0,5.05 3.61,10.03 10.68,10.03 4.98,0 8.73,-2.45 10.68,-5.19l0.22 0 0.5 4.4 5.77 0zm-6.71 -11.76c0,0.65 -0.14,1.37 -0.36,2.02 -1.01,2.96 -3.9,5.84 -8.44,5.84 -3.25,0 -5.99,-1.95 -5.99,-6.06 0,-6.78 7.86,-8.01 14.79,-7.86l0 6.06zm42.13 -39.46l0 20.85 -0.14 0c-1.59,-2.81 -5.19,-5.34 -10.53,-5.34 -8.51,0 -15.73,7.14 -15.66,18.76 0,10.61 6.49,17.75 14.93,17.75 5.7,0 9.96,-2.96 11.9,-6.85l0.14 0 0.29 6.06 5.7 0c-0.22,-2.38 -0.29,-5.91 -0.29,-9.02l0 -42.2 -6.35 0zm0 36.58c0,1.01 -0.07,1.88 -0.29,2.74 -1.15,4.76 -5.05,7.58 -9.31,7.58 -6.85,0 -10.31,-5.84 -10.31,-12.92 0,-7.72 3.89,-13.49 10.46,-13.49 4.76,0 8.22,3.32 9.16,7.36 0.22,0.79 0.29,1.88 0.29,2.67l0 6.06z"/>
  </g>
 </g>
</svg>
