<?xml version="1.0" encoding="UTF-8"?>
<!DOCTYPE svg PUBLIC "-//W3C//DTD SVG 1.1//EN" "http://www.w3.org/Graphics/SVG/1.1/DTD/svg11.dtd">
<!-- Creator: CorelDRAW 2020 (64 Bit) -->
<svg xmlns="http://www.w3.org/2000/svg" xml:space="preserve" width="31.4411mm" height="26.5703mm" version="1.1" style="shape-rendering:geometricPrecision; text-rendering:geometricPrecision; image-rendering:optimizeQuality; fill-rule:evenodd; clip-rule:evenodd"
viewBox="0 0 1452.77 1227.71"
 xmlns:xlink="http://www.w3.org/1999/xlink"
 xmlns:xodm="http://www.corel.com/coreldraw/odm/2003">
 <defs>
  <style type="text/css">
   <![CDATA[
    .fil2 {fill:#FEFEFE}
    .fil0 {fill:#848587}
    .fil1 {fill:#FEFEFE;fill-rule:nonzero}
   ]]>
  </style>
 </defs>
 <g id="Camada_x0020_1">
  <metadata id="CorelCorpID_0Corel-Layer"/>
  <polygon class="fil0" points="383.76,0 1261.89,0 1261.89,1227.71 383.76,1227.71 "/>
  <path class="fil1" d="M438.21 365.85l40.78 0 0 -112.57 14.09 0c18.54,0 25.58,7.88 25.58,32.27l0 48.03c0,21.39 1.48,25.51 3.71,32.27l41.52 0c-4.08,-9.75 -4.45,-19.14 -4.45,-31.9l0 -46.15c0,-29.65 -6.68,-49.16 -27.07,-55.53l0 -0.75c18.17,-7.51 26.69,-24.77 26.69,-51.78l0 -16.14c0,-40.53 -18.17,-60.41 -60.43,-60.41l-60.42 0 0 262.66zm40.78 -150.09l0 -75.05 18.54 0c14.46,0 20.76,8.26 20.76,27.02l0 20.26c0,21.01 -9.27,27.77 -24.46,27.77l-14.83 0zm108.62 150.09l111.21 0 0 -37.52 -70.44 0 0 -80.68 55.98 0 0 -37.52 -55.98 0 0 -69.42 70.44 0 0 -37.52 -111.21 0 0 262.66zm192.03 3.75c39.29,0 60.05,-24.01 60.05,-64.54l0 -37.14 -38.55 0 0 40.15c0,17.26 -8.16,24.01 -20.39,24.01 -12.23,0 -20.39,-6.75 -20.39,-24.01l0 -146.71c0,-17.26 8.16,-24.39 20.39,-24.39 12.24,0 20.39,7.13 20.39,24.39l0 30.39 38.55 0 0 -27.77c0,-40.52 -20.76,-64.54 -60.05,-64.54 -39.3,0 -60.06,24.02 -60.06,64.54l0 141.09c0,40.53 20.76,64.54 60.06,64.54zm84.52 -3.75l40.77 0 0 -262.66 -40.77 0 0 262.66zm71.18 0l64.13 0c40.77,0 61.91,-21.76 61.91,-62.29l0 -22.51c0,-27.77 -8.53,-47.28 -30.4,-54.78l0 -0.75c18.16,-7.5 26.32,-24.39 26.32,-51.4l0 -10.51c0,-40.53 -18.16,-60.41 -60.42,-60.41l-61.54 0 0 262.66zm40.78 -155.72l0 -69.42 19.65 0c14.46,0 20.76,8.26 20.76,27.02l0 14.63c0,21.01 -9.27,27.77 -24.47,27.77l-15.94 0zm0 118.19l0 -80.68 18.17 0c18.53,0 26.31,7.51 26.31,31.9l0 22.89c0,19.51 -7.41,25.89 -21.13,25.89l-23.36 0zm167.94 41.28c40.03,0 61.9,-24.01 61.9,-66.04l0 -138.08c0,-42.02 -21.87,-66.04 -61.9,-66.04 -40.04,0 -61.91,24.02 -61.91,66.04l0 138.08c0,42.03 21.87,66.04 61.91,66.04zm0 -37.52c-12.98,0 -21.13,-7.13 -21.13,-25.89l0 -143.34c0,-18.76 8.16,-25.89 21.13,-25.89 12.97,0 21.13,7.13 21.13,25.89l0 143.34c0,18.76 -8.16,25.89 -21.13,25.89z"/>
  <path class="fil2" d="M325.32 443.96l1032.61 0c52.16,0 94.83,45.17 94.83,100.39l0 156.16c0,55.22 -42.68,100.39 -94.83,100.39l-1032.61 0c-52.16,0 -94.83,-45.17 -94.83,-100.39l0 -156.16c0,-55.22 42.68,-100.39 94.83,-100.39z"/>
  <path class="fil1" d="M-0 693.89l18.93 0 0 -64.3 17.84 0c17.19,0.66 25.02,8.37 29.37,28.85 4.14,18.5 7.39,31.27 9.79,35.45l19.58 0c-3.04,-5.72 -6.53,-20.04 -11.32,-40.74 -3.48,-15.41 -10.23,-25.98 -21.54,-29.95l0 -0.66c15.44,-5.29 27.63,-18.28 27.63,-37.87 0,-11.45 -4.13,-21.58 -11.53,-28.19 -9.13,-8.37 -22.19,-12.11 -42.42,-12.11 -13.06,0 -26.76,1.1 -36.34,3.08l0 146.44zm18.93 -133c3.04,-0.88 9.57,-1.77 18.71,-1.77 20.01,0.22 33.72,8.59 33.72,27.75 0,16.96 -12.84,28.19 -33.07,28.19l-19.36 0 0 -54.17zm142.72 151.94l0 -22.9c22.41,-3.74 34.37,-20.04 34.37,-37.44 0,-19.6 -11.31,-31.05 -33.72,-40.3 -18.93,-7.93 -26.98,-13.65 -26.98,-25.1 0,-8.81 6.31,-18.94 23.06,-18.94 13.92,0 22.84,4.85 27.41,7.49l5.44 -14.54c-6.31,-3.74 -15.23,-7.26 -28.28,-7.71l0 -21.36 -13.49 0 0 22.24c-20.01,3.3 -32.85,17.17 -32.85,35.45 0,19.16 13.7,29.29 35.89,38.1 16.1,6.6 24.59,14.09 24.59,26.2 0,12.55 -10.44,21.58 -25.89,21.58 -12.18,0 -23.5,-4.18 -31.33,-9.47l-5.22 14.75c7.61,5.51 20.67,9.47 33.28,9.69l0 22.24 13.71 0z"/>
 </g>
</svg>
